solid OpenSCAD_Model
  facet normal -0.978148 -0.207912 0
    outer loop
      vertex -6.07066 -0.779188 0
      vertex -5.86274 -1.75734 0
      vertex -6.07066 -0.779188 10
    endloop
  endfacet
  facet normal -0.978148 -0.207912 0
    outer loop
      vertex -6.07066 -0.779188 10
      vertex -5.86274 -1.75734 0
      vertex -5.86274 -1.75734 10
    endloop
  endfacet
  facet normal 0 0 -1
    outer loop
      vertex -6.07066 -0.779188 0
      vertex -5.01316 -0.55441 0
      vertex -5.86274 -1.75734 0
    endloop
  endfacet
  facet normal 0 0 -1
    outer loop
      vertex -3.07344 4.06989 0
      vertex -5.01316 -0.55441 0
      vertex -3.81206 3.25965 0
    endloop
  endfacet
  facet normal 0 0 -1
    outer loop
      vertex -5.86274 1.75734 0
      vertex -5.01316 0.55441 0
      vertex -6.07066 0.779188 0
    endloop
  endfacet
  facet normal 0 0 -1
    outer loop
      vertex -4.78678 1.52863 0
      vertex -5.01316 0.55441 0
      vertex -5.86274 1.75734 0
    endloop
  endfacet
  facet normal 0 0 -1
    outer loop
      vertex -4.79015 1.51278 0
      vertex -5.01316 0.55441 0
      vertex -4.78678 1.52863 0
    endloop
  endfacet
  facet normal 0 0 -1
    outer loop
      vertex -5.01316 -0.55441 0
      vertex -5.01316 0.55441 0
      vertex -4.79015 1.51278 0
    endloop
  endfacet
  facet normal 0 0 -1
    outer loop
      vertex -1.39568 4.90531 0
      vertex -5.01316 -0.55441 0
      vertex -2.18142 4.51406 0
    endloop
  endfacet
  facet normal 0 0 -1
    outer loop
      vertex -4.64111 3.99 0
      vertex -4.3822 2.56582 0
      vertex -5.2289 3.18098 0
    endloop
  endfacet
  facet normal 0 0 -1
    outer loop
      vertex -3.75119 3.34343 0
      vertex -4.3822 2.56582 0
      vertex -4.64111 3.99 0
    endloop
  endfacet
  facet normal 0 0 -1
    outer loop
      vertex -3.81206 3.25965 0
      vertex -4.3822 2.56582 0
      vertex -3.75119 3.34343 0
    endloop
  endfacet
  facet normal 0 0 -1
    outer loop
      vertex -5.01316 -0.55441 0
      vertex -4.3822 2.56582 0
      vertex -3.81206 3.25965 0
    endloop
  endfacet
  facet normal 0 0 -1
    outer loop
      vertex -2.95978 4.12648 0
      vertex -5.01316 -0.55441 0
      vertex -3.07344 4.06989 0
    endloop
  endfacet
  facet normal 0 0 -1
    outer loop
      vertex 1.40948 5.95595 0
      vertex 1.11841 4.89392 0
      vertex 1.06956 4.90979 0
    endloop
  endfacet
  facet normal 0 0 -1
    outer loop
      vertex -2.61699 5.53275 0
      vertex -2.95978 4.12648 0
      vertex -3.48301 5.03275 0
    endloop
  endfacet
  facet normal 0 0 -1
    outer loop
      vertex -2.06699 4.58013 0
      vertex -2.95978 4.12648 0
      vertex -2.61699 5.53275 0
    endloop
  endfacet
  facet normal 0 0 -1
    outer loop
      vertex -2.18142 4.51406 0
      vertex -2.95978 4.12648 0
      vertex -2.06699 4.58013 0
    endloop
  endfacet
  facet normal 0 0 -1
    outer loop
      vertex -5.01316 -0.55441 0
      vertex -2.95978 4.12648 0
      vertex -2.18142 4.51406 0
    endloop
  endfacet
  facet normal 0 0 -1
    outer loop
      vertex -1.02196 4.93994 0
      vertex -5.01316 -0.55441 0
      vertex -1.39568 4.90531 0
    endloop
  endfacet
  facet normal 0 0 -1
    outer loop
      vertex -5.86274 -1.75734 0
      vertex -5.01316 -0.55441 0
      vertex -1.02196 4.93994 0
    endloop
  endfacet
  facet normal 0 0 -1
    outer loop
      vertex -0.140363 6.11885 0
      vertex -1.02196 4.93994 0
      vertex -1.13488 6.01432 0
    endloop
  endfacet
  facet normal 0 0 -1
    outer loop
      vertex -5.86274 -1.75734 0
      vertex -1.02196 4.93994 0
      vertex -0.140363 6.11885 0
    endloop
  endfacet
  facet normal 0 0 -1
    outer loop
      vertex -2.29201 2.64512 0
      vertex -0.140363 6.11885 0
      vertex -0.0261531 5.03222 0
    endloop
  endfacet
  facet normal 0 0 -1
    outer loop
      vertex -0.498102 3.46437 0
      vertex 0.470569 5.07824 0
      vertex 1.11841 4.89392 0
    endloop
  endfacet
  facet normal 0 0 -1
    outer loop
      vertex 3.71012 4.86775 0
      vertex 3.07176 3.96234 0
      vertex 2.97408 4.05029 0
    endloop
  endfacet
  facet normal 0 0 -1
    outer loop
      vertex 1.11841 4.89392 0
      vertex 1.40948 5.95595 0
      vertex 2.36053 5.64694 0
    endloop
  endfacet
  facet normal 0 0 -1
    outer loop
      vertex 1.45395 3.18371 0
      vertex 2.27327 4.56533 0
      vertex 3.07176 3.96234 0
    endloop
  endfacet
  facet normal 0 0 -1
    outer loop
      vertex 5.36926 2.93787 0
      vertex 4.39009 2.43267 0
      vertex 4.36436 2.49046 0
    endloop
  endfacet
  facet normal 0 0 -1
    outer loop
      vertex 3.07176 3.96234 0
      vertex 3.71012 4.86775 0
      vertex 4.45327 4.19862 0
    endloop
  endfacet
  facet normal 0 0 -1
    outer loop
      vertex 2.3 2.45061 0
      vertex 3.76894 3.43585 0
      vertex 4.39009 2.43267 0
    endloop
  endfacet
  facet normal 0 0 -1
    outer loop
      vertex 4.39009 2.43267 0
      vertex 5.36926 2.93787 0
      vertex 5.776 2.02432 0
    endloop
  endfacet
  facet normal 0 0 -1
    outer loop
      vertex -0.498102 3.46437 0
      vertex 1.11841 4.89392 0
      vertex 2.36053 5.64694 0
    endloop
  endfacet
  facet normal 0 0 -1
    outer loop
      vertex -0.498102 3.46437 0
      vertex 2.36053 5.64694 0
      vertex 2.03145 4.63413 0
    endloop
  endfacet
  facet normal 0 0 -1
    outer loop
      vertex 5.00653 -0.5 0
      vertex 6.1 -1.49407e-15 0
      vertex 6.1 -0.5 0
    endloop
  endfacet
  facet normal 0 0 -1
    outer loop
      vertex 1.45395 3.18371 0
      vertex 4.45327 4.19862 0
      vertex 3.76747 3.43696 0
    endloop
  endfacet
  facet normal 0 0 -1
    outer loop
      vertex -0.498102 3.46437 0
      vertex 2.03145 4.63413 0
      vertex 2.27327 4.56533 0
    endloop
  endfacet
  facet normal 0 0 -1
    outer loop
      vertex -2.29201 2.64512 0
      vertex -0.0261531 5.03222 0
      vertex 0.470569 5.07824 0
    endloop
  endfacet
  facet normal 0 0 -1
    outer loop
      vertex -0.498102 3.46437 0
      vertex 2.27327 4.56533 0
      vertex 1.45395 3.18371 0
    endloop
  endfacet
  facet normal 0 0 -1
    outer loop
      vertex -2.29201 2.64512 0
      vertex 0.470569 5.07824 0
      vertex -0.498102 3.46437 0
    endloop
  endfacet
  facet normal 0 0 -1
    outer loop
      vertex 4.36436 -2.49046 0
      vertex 5.776 -2.02432 0
      vertex 5.36926 -2.93787 0
    endloop
  endfacet
  facet normal 0 0 -1
    outer loop
      vertex 4.39009 -2.43267 0
      vertex 5.776 -2.02432 0
      vertex 4.36436 -2.49046 0
    endloop
  endfacet
  facet normal 0 0 -1
    outer loop
      vertex 2.3 2.45061 0
      vertex 5.00653 -0.5 0
      vertex 4.8026 -1.59094 0
    endloop
  endfacet
  facet normal 0 0 -1
    outer loop
      vertex 1.45395 3.18371 0
      vertex 3.07176 3.96234 0
      vertex 4.45327 4.19862 0
    endloop
  endfacet
  facet normal 0 0 -1
    outer loop
      vertex 2.3 2.45061 0
      vertex 4.39009 2.43267 0
      vertex 5.776 2.02432 0
    endloop
  endfacet
  facet normal 0 0 -1
    outer loop
      vertex 2.97408 -4.05029 0
      vertex 4.45327 -4.19862 0
      vertex 3.71012 -4.86775 0
    endloop
  endfacet
  facet normal 0 0 -1
    outer loop
      vertex 3.07176 -3.96234 0
      vertex 4.45327 -4.19862 0
      vertex 2.97408 -4.05029 0
    endloop
  endfacet
  facet normal 0 0 -1
    outer loop
      vertex 2.3 2.45061 0
      vertex 4.8026 1.59094 0
      vertex 5.00653 0.5 0
    endloop
  endfacet
  facet normal 0 0 -1
    outer loop
      vertex 1.06956 -4.90979 0
      vertex 2.36053 -5.64694 0
      vertex 1.40948 -5.95595 0
    endloop
  endfacet
  facet normal 0 0 -1
    outer loop
      vertex 5.00653 0.5 0
      vertex 6.1 0.5 0
      vertex 6.1 -1.49407e-15 0
    endloop
  endfacet
  facet normal 0 0 -1
    outer loop
      vertex 2.03145 -4.63413 0
      vertex 2.36053 -5.64694 0
      vertex 1.06956 -4.90979 0
    endloop
  endfacet
  facet normal 0 0 -1
    outer loop
      vertex -0.140363 -6.11885 0
      vertex -1.02196 -4.93994 0
      vertex -0.0261531 -5.03222 0
    endloop
  endfacet
  facet normal 0 0 -1
    outer loop
      vertex 2.03145 -4.63413 0
      vertex 1.06956 -4.90979 0
      vertex 1.11841 -4.89392 0
    endloop
  endfacet
  facet normal 0 0 -1
    outer loop
      vertex -4.3822 -2.56582 0
      vertex 0.470569 -5.07824 0
      vertex -0.0261531 -5.03222 0
    endloop
  endfacet
  facet normal 0 0 -1
    outer loop
      vertex -1.02196 -4.93994 0
      vertex -0.140363 -6.11885 0
      vertex -1.13488 -6.01432 0
    endloop
  endfacet
  facet normal 0 0 -1
    outer loop
      vertex -4.3822 -2.56582 0
      vertex -3.81206 -3.25965 0
      vertex -3.75119 -3.34343 0
    endloop
  endfacet
  facet normal 0 0 -1
    outer loop
      vertex -3.81206 -3.25965 0
      vertex -2.95978 -4.12648 0
      vertex -3.07344 -4.06989 0
    endloop
  endfacet
  facet normal 0 0 -1
    outer loop
      vertex -3.81206 -3.25965 0
      vertex -2.18142 -4.51406 0
      vertex -2.95978 -4.12648 0
    endloop
  endfacet
  facet normal 0 0 -1
    outer loop
      vertex -3.81206 -3.25965 0
      vertex -1.39568 -4.90531 0
      vertex -2.18142 -4.51406 0
    endloop
  endfacet
  facet normal 0 0 -1
    outer loop
      vertex -2.61699 -5.53275 0
      vertex -2.18142 -4.51406 0
      vertex -2.06699 -4.58013 0
    endloop
  endfacet
  facet normal 0 0 -1
    outer loop
      vertex -2.61699 -5.53275 0
      vertex -2.95978 -4.12648 0
      vertex -2.18142 -4.51406 0
    endloop
  endfacet
  facet normal 0 0 -1
    outer loop
      vertex -2.95978 -4.12648 0
      vertex -2.61699 -5.53275 0
      vertex -3.48301 -5.03275 0
    endloop
  endfacet
  facet normal 0 0 -1
    outer loop
      vertex -4.3822 -2.56582 0
      vertex -1.39568 -4.90531 0
      vertex -3.81206 -3.25965 0
    endloop
  endfacet
  facet normal 0 0 -1
    outer loop
      vertex -4.3822 -2.56582 0
      vertex -4.64111 -3.99 0
      vertex -5.2289 -3.18098 0
    endloop
  endfacet
  facet normal 0 0 -1
    outer loop
      vertex -4.3822 -2.56582 0
      vertex -3.75119 -3.34343 0
      vertex -4.64111 -3.99 0
    endloop
  endfacet
  facet normal 0 0 -1
    outer loop
      vertex -4.3822 -2.56582 0
      vertex -1.02196 -4.93994 0
      vertex -1.39568 -4.90531 0
    endloop
  endfacet
  facet normal 0 0 -1
    outer loop
      vertex -4.3822 -2.56582 0
      vertex -0.0261531 -5.03222 0
      vertex -1.02196 -4.93994 0
    endloop
  endfacet
  facet normal 0 0 -1
    outer loop
      vertex -4.79015 -1.51278 0
      vertex -5.86274 -1.75734 0
      vertex -2.3 2.6327 0
    endloop
  endfacet
  facet normal 0 0 -1
    outer loop
      vertex -5.86274 -1.75734 0
      vertex -4.79015 -1.51278 0
      vertex -4.78678 -1.52863 0
    endloop
  endfacet
  facet normal 0 0 -1
    outer loop
      vertex -2.3 -2.6327 0
      vertex -4.79015 -1.51278 0
      vertex -2.3 2.6327 0
    endloop
  endfacet
  facet normal 0 0 -1
    outer loop
      vertex -5.86274 -1.75734 0
      vertex -0.140363 6.11885 0
      vertex -2.3 2.6327 0
    endloop
  endfacet
  facet normal 0 0 -1
    outer loop
      vertex 1.45395 3.18371 0
      vertex 3.76747 3.43696 0
      vertex 3.76894 3.43585 0
    endloop
  endfacet
  facet normal 0 0 -1
    outer loop
      vertex 1.45395 3.18371 0
      vertex 3.76894 3.43585 0
      vertex 2.3 2.45061 0
    endloop
  endfacet
  facet normal 0 0 -1
    outer loop
      vertex 3.76747 -3.43696 0
      vertex 4.45327 -4.19862 0
      vertex 1.45395 -3.18371 0
    endloop
  endfacet
  facet normal 0 0 -1
    outer loop
      vertex 2.3 2.45061 0
      vertex 5.00653 0.5 0
      vertex 5.00653 -0.5 0
    endloop
  endfacet
  facet normal 0 0 -1
    outer loop
      vertex -2.3 2.6327 0
      vertex -0.140363 6.11885 0
      vertex -2.29201 2.64512 0
    endloop
  endfacet
  facet normal 0 0 -1
    outer loop
      vertex -4.3822 2.56582 0
      vertex -5.01316 -0.55441 0
      vertex -4.79015 1.51278 0
    endloop
  endfacet
  facet normal 0 0 -1
    outer loop
      vertex 3.76894 -3.43585 0
      vertex 2.3 -2.45061 0
      vertex 4.39009 -2.43267 0
    endloop
  endfacet
  facet normal 0 0 -1
    outer loop
      vertex 2.3 2.45061 0
      vertex 4.39009 -2.43267 0
      vertex 2.3 -2.45061 0
    endloop
  endfacet
  facet normal 0 0 -1
    outer loop
      vertex 2.3 2.45061 0
      vertex 4.8026 -1.59094 0
      vertex 4.39009 -2.43267 0
    endloop
  endfacet
  facet normal 0 0 -1
    outer loop
      vertex 1.45395 -3.18371 0
      vertex 2.27327 -4.56533 0
      vertex -0.498102 -3.46437 0
    endloop
  endfacet
  facet normal 0 0 -1
    outer loop
      vertex 1.45395 -3.18371 0
      vertex 3.07176 -3.96234 0
      vertex 2.27327 -4.56533 0
    endloop
  endfacet
  facet normal 0 0 -1
    outer loop
      vertex 1.45395 -3.18371 0
      vertex 4.45327 -4.19862 0
      vertex 3.07176 -3.96234 0
    endloop
  endfacet
  facet normal 0 0 -1
    outer loop
      vertex 5.00653 0.5 0
      vertex 6.1 -1.49407e-15 0
      vertex 5.00653 -0.5 0
    endloop
  endfacet
  facet normal 0 0 -1
    outer loop
      vertex -4.79015 -1.51278 0
      vertex -2.3 -2.6327 0
      vertex -2.29201 -2.64512 0
    endloop
  endfacet
  facet normal 0 0 -1
    outer loop
      vertex -4.79015 -1.51278 0
      vertex -2.29201 -2.64512 0
      vertex -0.498102 -3.46437 0
    endloop
  endfacet
  facet normal 0 0 -1
    outer loop
      vertex -0.498102 -3.46437 0
      vertex 2.27327 -4.56533 0
      vertex 2.03145 -4.63413 0
    endloop
  endfacet
  facet normal 0 0 -1
    outer loop
      vertex -4.79015 -1.51278 0
      vertex -0.498102 -3.46437 0
      vertex 2.03145 -4.63413 0
    endloop
  endfacet
  facet normal 0 0 -1
    outer loop
      vertex -4.79015 -1.51278 0
      vertex 2.03145 -4.63413 0
      vertex 1.11841 -4.89392 0
    endloop
  endfacet
  facet normal 0 0 -1
    outer loop
      vertex -4.79015 -1.51278 0
      vertex 1.11841 -4.89392 0
      vertex 0.470569 -5.07824 0
    endloop
  endfacet
  facet normal 0 0 -1
    outer loop
      vertex -4.79015 -1.51278 0
      vertex 0.470569 -5.07824 0
      vertex -4.3822 -2.56582 0
    endloop
  endfacet
  facet normal 0 0 -1
    outer loop
      vertex 4.8026 -1.59094 0
      vertex 5.776 -2.02432 0
      vertex 4.39009 -2.43267 0
    endloop
  endfacet
  facet normal 0 0 -1
    outer loop
      vertex 2.3 -2.45061 0
      vertex 3.76894 -3.43585 0
      vertex 3.76747 -3.43696 0
    endloop
  endfacet
  facet normal 0 0 -1
    outer loop
      vertex 2.3 -2.45061 0
      vertex 3.76747 -3.43696 0
      vertex 1.45395 -3.18371 0
    endloop
  endfacet
  facet normal 0 0 -1
    outer loop
      vertex 2.3 2.45061 0
      vertex 5.776 2.02432 0
      vertex 4.8026 1.59094 0
    endloop
  endfacet
  facet normal -0.207912 0.978148 0
    outer loop
      vertex -6.07066 -0.779188 0
      vertex -6.07066 -0.779188 10
      vertex -5.01316 -0.55441 0
    endloop
  endfacet
  facet normal -0.207912 0.978148 0
    outer loop
      vertex -5.01316 -0.55441 0
      vertex -6.07066 -0.779188 10
      vertex -5.01316 -0.55441 10
    endloop
  endfacet
  facet normal 0 0 1
    outer loop
      vertex -5.01316 -0.55441 10
      vertex -6.07066 -0.779188 10
      vertex -5.86274 -1.75734 10
    endloop
  endfacet
  facet normal 0 0 1
    outer loop
      vertex -4.79015 -1.51278 10
      vertex -5.01316 -0.55441 10
      vertex -4.78678 -1.52863 10
    endloop
  endfacet
  facet normal 0 0 1
    outer loop
      vertex -4.78678 -1.52863 10
      vertex -5.01316 -0.55441 10
      vertex -5.86274 -1.75734 10
    endloop
  endfacet
  facet normal 0 0 1
    outer loop
      vertex -4.3822 -2.56582 10
      vertex -5.01316 -0.55441 10
      vertex -4.79015 -1.51278 10
    endloop
  endfacet
  facet normal 0 0 1
    outer loop
      vertex -3.81206 -3.25965 10
      vertex -5.01316 -0.55441 10
      vertex -4.3822 -2.56582 10
    endloop
  endfacet
  facet normal 0 0 1
    outer loop
      vertex -4.64111 -3.99 10
      vertex -4.3822 -2.56582 10
      vertex -5.2289 -3.18098 10
    endloop
  endfacet
  facet normal 0 0 1
    outer loop
      vertex -3.75119 -3.34343 10
      vertex -4.3822 -2.56582 10
      vertex -4.64111 -3.99 10
    endloop
  endfacet
  facet normal 0 0 1
    outer loop
      vertex -3.75119 -3.34343 10
      vertex -3.81206 -3.25965 10
      vertex -4.3822 -2.56582 10
    endloop
  endfacet
  facet normal 0 0 1
    outer loop
      vertex -2.18142 -4.51406 10
      vertex -1.39568 -4.90531 10
      vertex -5.01316 -0.55441 10
    endloop
  endfacet
  facet normal 0 0 1
    outer loop
      vertex -2.95978 -4.12648 10
      vertex -5.01316 -0.55441 10
      vertex -3.07344 -4.06989 10
    endloop
  endfacet
  facet normal 0 0 1
    outer loop
      vertex -2.18142 -4.51406 10
      vertex -5.01316 -0.55441 10
      vertex -2.95978 -4.12648 10
    endloop
  endfacet
  facet normal 0 0 1
    outer loop
      vertex -2.61699 -5.53275 10
      vertex -2.95978 -4.12648 10
      vertex -3.48301 -5.03275 10
    endloop
  endfacet
  facet normal 0 0 1
    outer loop
      vertex -2.06699 -4.58013 10
      vertex -2.95978 -4.12648 10
      vertex -2.61699 -5.53275 10
    endloop
  endfacet
  facet normal 0 0 1
    outer loop
      vertex -2.06699 -4.58013 10
      vertex -2.18142 -4.51406 10
      vertex -2.95978 -4.12648 10
    endloop
  endfacet
  facet normal 0 0 1
    outer loop
      vertex 1.06956 -4.90979 10
      vertex 1.40948 -5.95595 10
      vertex 1.11841 -4.89392 10
    endloop
  endfacet
  facet normal 0 0 1
    outer loop
      vertex -1.02196 -4.93994 10
      vertex -5.01316 -0.55441 10
      vertex -1.39568 -4.90531 10
    endloop
  endfacet
  facet normal 0 0 1
    outer loop
      vertex -0.0261531 -5.03222 10
      vertex -5.01316 -0.55441 10
      vertex -1.02196 -4.93994 10
    endloop
  endfacet
  facet normal 0 0 1
    outer loop
      vertex -0.140363 -6.11885 10
      vertex -1.02196 -4.93994 10
      vertex -1.13488 -6.01432 10
    endloop
  endfacet
  facet normal 0 0 1
    outer loop
      vertex -0.0261531 -5.03222 10
      vertex -1.02196 -4.93994 10
      vertex -0.140363 -6.11885 10
    endloop
  endfacet
  facet normal 0 0 1
    outer loop
      vertex 0.470569 -5.07824 10
      vertex -5.01316 -0.55441 10
      vertex -0.0261531 -5.03222 10
    endloop
  endfacet
  facet normal 0 0 1
    outer loop
      vertex 1.11841 -4.89392 10
      vertex -5.01316 -0.55441 10
      vertex 0.470569 -5.07824 10
    endloop
  endfacet
  facet normal 0 0 1
    outer loop
      vertex 2.36053 -5.64694 10
      vertex -5.01316 -0.55441 10
      vertex 1.11841 -4.89392 10
    endloop
  endfacet
  facet normal 0 0 1
    outer loop
      vertex 2.97408 -4.05029 10
      vertex 3.71012 -4.86775 10
      vertex 3.07176 -3.96234 10
    endloop
  endfacet
  facet normal 0 0 1
    outer loop
      vertex 2.36053 -5.64694 10
      vertex 1.11841 -4.89392 10
      vertex 1.40948 -5.95595 10
    endloop
  endfacet
  facet normal 0 0 1
    outer loop
      vertex 2.03145 -4.63413 10
      vertex -5.01316 -0.55441 10
      vertex 2.36053 -5.64694 10
    endloop
  endfacet
  facet normal 0 0 1
    outer loop
      vertex 2.27327 -4.56533 10
      vertex -5.01316 -0.55441 10
      vertex 2.03145 -4.63413 10
    endloop
  endfacet
  facet normal 0 0 1
    outer loop
      vertex 3.07176 -3.96234 10
      vertex -5.01316 -0.55441 10
      vertex 2.27327 -4.56533 10
    endloop
  endfacet
  facet normal 0 0 1
    outer loop
      vertex 4.45327 -4.19862 10
      vertex -5.01316 -0.55441 10
      vertex 3.07176 -3.96234 10
    endloop
  endfacet
  facet normal 0 0 1
    outer loop
      vertex 4.36436 -2.49046 10
      vertex 5.36926 -2.93787 10
      vertex 4.39009 -2.43267 10
    endloop
  endfacet
  facet normal 0 0 1
    outer loop
      vertex 4.45327 -4.19862 10
      vertex 3.07176 -3.96234 10
      vertex 3.71012 -4.86775 10
    endloop
  endfacet
  facet normal 0 0 1
    outer loop
      vertex 3.76747 -3.43696 10
      vertex -5.01316 -0.55441 10
      vertex 4.45327 -4.19862 10
    endloop
  endfacet
  facet normal 0 0 1
    outer loop
      vertex 3.76894 -3.43585 10
      vertex -5.01316 -0.55441 10
      vertex 3.76747 -3.43696 10
    endloop
  endfacet
  facet normal 0 0 1
    outer loop
      vertex 4.39009 -2.43267 10
      vertex -5.01316 -0.55441 10
      vertex 3.76894 -3.43585 10
    endloop
  endfacet
  facet normal 0 0 1
    outer loop
      vertex 5.776 -2.02432 10
      vertex -5.01316 -0.55441 10
      vertex 4.39009 -2.43267 10
    endloop
  endfacet
  facet normal 0 0 1
    outer loop
      vertex 5.776 -2.02432 10
      vertex 4.39009 -2.43267 10
      vertex 5.36926 -2.93787 10
    endloop
  endfacet
  facet normal 0 0 1
    outer loop
      vertex 4.8026 -1.59094 10
      vertex -5.01316 -0.55441 10
      vertex 5.776 -2.02432 10
    endloop
  endfacet
  facet normal 0 0 1
    outer loop
      vertex 0.309017 -0.951057 10
      vertex -5.01316 -0.55441 10
      vertex 4.8026 -1.59094 10
    endloop
  endfacet
  facet normal 0 0 1
    outer loop
      vertex 6.1 -1.49407e-15 10
      vertex 5.00653 -0.5 10
      vertex 6.1 -0.5 10
    endloop
  endfacet
  facet normal 0 0 1
    outer loop
      vertex 0.309017 0.951057 10
      vertex 1 0 10
      vertex 5.00653 0.5 10
    endloop
  endfacet
  facet normal 0 0 1
    outer loop
      vertex 0.309017 0.951057 10
      vertex 5.00653 0.5 10
      vertex 4.8026 1.59094 10
    endloop
  endfacet
  facet normal 0 0 1
    outer loop
      vertex 0.309017 0.951057 10
      vertex 4.8026 1.59094 10
      vertex 5.776 2.02432 10
    endloop
  endfacet
  facet normal 0 0 1
    outer loop
      vertex -3.81206 -3.25965 10
      vertex -3.07344 -4.06989 10
      vertex -5.01316 -0.55441 10
    endloop
  endfacet
  facet normal 0 0 1
    outer loop
      vertex 4.39009 2.43267 10
      vertex 3.76894 3.43585 10
      vertex -5.01316 0.55441 10
    endloop
  endfacet
  facet normal 0 0 1
    outer loop
      vertex 5.36926 2.93787 10
      vertex 4.36436 2.49046 10
      vertex 5.776 2.02432 10
    endloop
  endfacet
  facet normal 0 0 1
    outer loop
      vertex 4.36436 2.49046 10
      vertex 4.39009 2.43267 10
      vertex 5.776 2.02432 10
    endloop
  endfacet
  facet normal 0 0 1
    outer loop
      vertex -3.48301 5.03275 10
      vertex -2.95978 4.12648 10
      vertex -2.61699 5.53275 10
    endloop
  endfacet
  facet normal 0 0 1
    outer loop
      vertex -0.809017 -0.587785 10
      vertex -0.809017 0.587785 10
      vertex -5.01316 -0.55441 10
    endloop
  endfacet
  facet normal 0 0 1
    outer loop
      vertex 3.71012 4.86775 10
      vertex 2.97408 4.05029 10
      vertex 4.45327 4.19862 10
    endloop
  endfacet
  facet normal 0 0 1
    outer loop
      vertex 2.97408 4.05029 10
      vertex 3.07176 3.96234 10
      vertex 4.45327 4.19862 10
    endloop
  endfacet
  facet normal 0 0 1
    outer loop
      vertex 1.40948 5.95595 10
      vertex 1.06956 4.90979 10
      vertex 2.36053 5.64694 10
    endloop
  endfacet
  facet normal 0 0 1
    outer loop
      vertex 1.06956 4.90979 10
      vertex 1.11841 4.89392 10
      vertex 2.36053 5.64694 10
    endloop
  endfacet
  facet normal 0 0 1
    outer loop
      vertex -6.07066 0.779188 10
      vertex -4.79015 1.51278 10
      vertex -4.78678 1.52863 10
    endloop
  endfacet
  facet normal 0 0 1
    outer loop
      vertex -0.140363 6.11885 10
      vertex -1.02196 4.93994 10
      vertex -0.0261531 5.03222 10
    endloop
  endfacet
  facet normal 0 0 1
    outer loop
      vertex -2.06699 4.58013 10
      vertex -2.95978 4.12648 10
      vertex -2.18142 4.51406 10
    endloop
  endfacet
  facet normal 0 0 1
    outer loop
      vertex -3.75119 3.34343 10
      vertex -4.3822 2.56582 10
      vertex -3.81206 3.25965 10
    endloop
  endfacet
  facet normal 0 0 1
    outer loop
      vertex -4.79015 1.51278 10
      vertex -5.01316 0.55441 10
      vertex -2.18142 4.51406 10
    endloop
  endfacet
  facet normal 0 0 1
    outer loop
      vertex -6.07066 0.779188 10
      vertex -4.78678 1.52863 10
      vertex -5.86274 1.75734 10
    endloop
  endfacet
  facet normal 0 0 1
    outer loop
      vertex 5.00653 0.5 10
      vertex 1 0 10
      vertex 6.1 0.5 10
    endloop
  endfacet
  facet normal 0 0 1
    outer loop
      vertex -3.75119 3.34343 10
      vertex -4.64111 3.99 10
      vertex -4.3822 2.56582 10
    endloop
  endfacet
  facet normal 0 0 1
    outer loop
      vertex -4.3822 2.56582 10
      vertex -4.79015 1.51278 10
      vertex -3.81206 3.25965 10
    endloop
  endfacet
  facet normal 0 0 1
    outer loop
      vertex -6.07066 0.779188 10
      vertex -5.01316 0.55441 10
      vertex -4.79015 1.51278 10
    endloop
  endfacet
  facet normal 0 0 1
    outer loop
      vertex -5.2289 3.18098 10
      vertex -4.3822 2.56582 10
      vertex -4.64111 3.99 10
    endloop
  endfacet
  facet normal 0 0 1
    outer loop
      vertex -4.79015 1.51278 10
      vertex -3.07344 4.06989 10
      vertex -3.81206 3.25965 10
    endloop
  endfacet
  facet normal 0 0 1
    outer loop
      vertex 1 0 10
      vertex 5.00653 -0.5 10
      vertex 6.1 -1.49407e-15 10
    endloop
  endfacet
  facet normal 0 0 1
    outer loop
      vertex -4.79015 1.51278 10
      vertex -2.95978 4.12648 10
      vertex -3.07344 4.06989 10
    endloop
  endfacet
  facet normal 0 0 1
    outer loop
      vertex -4.79015 1.51278 10
      vertex -2.18142 4.51406 10
      vertex -2.95978 4.12648 10
    endloop
  endfacet
  facet normal 0 0 1
    outer loop
      vertex -2.18142 4.51406 10
      vertex -5.01316 0.55441 10
      vertex -1.39568 4.90531 10
    endloop
  endfacet
  facet normal 0 0 1
    outer loop
      vertex 1 0 10
      vertex 4.8026 -1.59094 10
      vertex 5.00653 -0.5 10
    endloop
  endfacet
  facet normal 0 0 1
    outer loop
      vertex -2.06699 4.58013 10
      vertex -2.61699 5.53275 10
      vertex -2.95978 4.12648 10
    endloop
  endfacet
  facet normal 0 0 1
    outer loop
      vertex 4.39009 2.43267 10
      vertex 0.309017 0.951057 10
      vertex 5.776 2.02432 10
    endloop
  endfacet
  facet normal 0 0 1
    outer loop
      vertex 4.39009 2.43267 10
      vertex -0.809017 0.587785 10
      vertex 0.309017 0.951057 10
    endloop
  endfacet
  facet normal 0 0 1
    outer loop
      vertex 6.1 0.5 10
      vertex 1 0 10
      vertex 6.1 -1.49407e-15 10
    endloop
  endfacet
  facet normal 0 0 1
    outer loop
      vertex -0.809017 -0.587785 10
      vertex -5.01316 -0.55441 10
      vertex 0.309017 -0.951057 10
    endloop
  endfacet
  facet normal 0 0 1
    outer loop
      vertex -5.01316 0.55441 10
      vertex -0.0261531 5.03222 10
      vertex -1.02196 4.93994 10
    endloop
  endfacet
  facet normal 0 0 1
    outer loop
      vertex -1.02196 4.93994 10
      vertex -1.39568 4.90531 10
      vertex -5.01316 0.55441 10
    endloop
  endfacet
  facet normal 0 0 1
    outer loop
      vertex 0.470569 5.07824 10
      vertex -0.0261531 5.03222 10
      vertex -5.01316 0.55441 10
    endloop
  endfacet
  facet normal 0 0 1
    outer loop
      vertex -5.01316 0.55441 10
      vertex 2.36053 5.64694 10
      vertex 1.11841 4.89392 10
    endloop
  endfacet
  facet normal 0 0 1
    outer loop
      vertex -5.01316 0.55441 10
      vertex 2.03145 4.63413 10
      vertex 2.36053 5.64694 10
    endloop
  endfacet
  facet normal 0 0 1
    outer loop
      vertex -5.01316 0.55441 10
      vertex 2.27327 4.56533 10
      vertex 2.03145 4.63413 10
    endloop
  endfacet
  facet normal 0 0 1
    outer loop
      vertex 1.11841 4.89392 10
      vertex 0.470569 5.07824 10
      vertex -5.01316 0.55441 10
    endloop
  endfacet
  facet normal 0 0 1
    outer loop
      vertex -1.13488 6.01432 10
      vertex -1.02196 4.93994 10
      vertex -0.140363 6.11885 10
    endloop
  endfacet
  facet normal 0 0 1
    outer loop
      vertex -5.01316 0.55441 10
      vertex 4.45327 4.19862 10
      vertex 3.07176 3.96234 10
    endloop
  endfacet
  facet normal 0 0 1
    outer loop
      vertex -5.01316 0.55441 10
      vertex 3.76747 3.43696 10
      vertex 4.45327 4.19862 10
    endloop
  endfacet
  facet normal 0 0 1
    outer loop
      vertex -5.01316 0.55441 10
      vertex 3.76894 3.43585 10
      vertex 3.76747 3.43696 10
    endloop
  endfacet
  facet normal 0 0 1
    outer loop
      vertex 3.07176 3.96234 10
      vertex 2.27327 4.56533 10
      vertex -5.01316 0.55441 10
    endloop
  endfacet
  facet normal 0 0 1
    outer loop
      vertex -5.01316 0.55441 10
      vertex -0.809017 0.587785 10
      vertex 4.39009 2.43267 10
    endloop
  endfacet
  facet normal 0 0 1
    outer loop
      vertex 1 0 10
      vertex 0.309017 -0.951057 10
      vertex 4.8026 -1.59094 10
    endloop
  endfacet
  facet normal 0 0 1
    outer loop
      vertex -5.01316 0.55441 10
      vertex -5.01316 -0.55441 10
      vertex -0.809017 0.587785 10
    endloop
  endfacet
  facet normal 0.207912 -0.978148 0
    outer loop
      vertex -5.86274 -1.75734 10
      vertex -5.86274 -1.75734 0
      vertex -4.78678 -1.52863 0
    endloop
  endfacet
  facet normal 0.207912 -0.978148 0
    outer loop
      vertex -4.78678 -1.52863 10
      vertex -5.86274 -1.75734 10
      vertex -4.78678 -1.52863 0
    endloop
  endfacet
  facet normal 0.978148 0.207912 0
    outer loop
      vertex -4.78678 -1.52863 0
      vertex -4.79015 -1.51278 0
      vertex -4.79015 -1.51278 10
    endloop
  endfacet
  facet normal 0.978148 0.207912 0
    outer loop
      vertex -4.78678 -1.52863 10
      vertex -4.78678 -1.52863 0
      vertex -4.79015 -1.51278 10
    endloop
  endfacet
  facet normal -0.932472 -0.361242 0
    outer loop
      vertex -4.79015 -1.51278 0
      vertex -4.3822 -2.56582 0
      vertex -4.79015 -1.51278 10
    endloop
  endfacet
  facet normal -0.932472 -0.361242 0
    outer loop
      vertex -4.79015 -1.51278 10
      vertex -4.3822 -2.56582 0
      vertex -4.3822 -2.56582 10
    endloop
  endfacet
  facet normal -0.587785 0.809017 0
    outer loop
      vertex -5.2289 -3.18098 0
      vertex -5.2289 -3.18098 10
      vertex -4.3822 -2.56582 0
    endloop
  endfacet
  facet normal -0.587785 0.809017 0
    outer loop
      vertex -4.3822 -2.56582 0
      vertex -5.2289 -3.18098 10
      vertex -4.3822 -2.56582 10
    endloop
  endfacet
  facet normal -0.809017 -0.587785 0
    outer loop
      vertex -5.2289 -3.18098 0
      vertex -4.64111 -3.99 0
      vertex -5.2289 -3.18098 10
    endloop
  endfacet
  facet normal -0.809017 -0.587785 0
    outer loop
      vertex -5.2289 -3.18098 10
      vertex -4.64111 -3.99 0
      vertex -4.64111 -3.99 10
    endloop
  endfacet
  facet normal 0.587785 -0.809017 0
    outer loop
      vertex -4.64111 -3.99 10
      vertex -4.64111 -3.99 0
      vertex -3.75119 -3.34343 0
    endloop
  endfacet
  facet normal 0.587785 -0.809017 0
    outer loop
      vertex -3.75119 -3.34343 10
      vertex -4.64111 -3.99 10
      vertex -3.75119 -3.34343 0
    endloop
  endfacet
  facet normal 0.809017 0.587785 0
    outer loop
      vertex -3.75119 -3.34343 0
      vertex -3.81206 -3.25965 0
      vertex -3.81206 -3.25965 10
    endloop
  endfacet
  facet normal 0.809017 0.587785 0
    outer loop
      vertex -3.75119 -3.34343 10
      vertex -3.75119 -3.34343 0
      vertex -3.81206 -3.25965 10
    endloop
  endfacet
  facet normal -0.739009 -0.673695 0
    outer loop
      vertex -3.81206 -3.25965 0
      vertex -3.07344 -4.06989 0
      vertex -3.81206 -3.25965 10
    endloop
  endfacet
  facet normal -0.739009 -0.673695 0
    outer loop
      vertex -3.81206 -3.25965 10
      vertex -3.07344 -4.06989 0
      vertex -3.07344 -4.06989 10
    endloop
  endfacet
  facet normal -0.445738 -0.895163 0
    outer loop
      vertex -3.07344 -4.06989 10
      vertex -3.07344 -4.06989 0
      vertex -2.95978 -4.12648 0
    endloop
  endfacet
  facet normal -0.445738 -0.895163 0
    outer loop
      vertex -2.95978 -4.12648 10
      vertex -3.07344 -4.06989 10
      vertex -2.95978 -4.12648 0
    endloop
  endfacet
  facet normal -0.866025 0.5 0
    outer loop
      vertex -3.48301 -5.03275 0
      vertex -3.48301 -5.03275 10
      vertex -2.95978 -4.12648 0
    endloop
  endfacet
  facet normal -0.866025 0.5 0
    outer loop
      vertex -2.95978 -4.12648 0
      vertex -3.48301 -5.03275 10
      vertex -2.95978 -4.12648 10
    endloop
  endfacet
  facet normal -0.5 -0.866025 0
    outer loop
      vertex -3.48301 -5.03275 10
      vertex -3.48301 -5.03275 0
      vertex -2.61699 -5.53275 0
    endloop
  endfacet
  facet normal -0.5 -0.866025 0
    outer loop
      vertex -2.61699 -5.53275 10
      vertex -3.48301 -5.03275 10
      vertex -2.61699 -5.53275 0
    endloop
  endfacet
  facet normal 0.866025 -0.5 0
    outer loop
      vertex -2.61699 -5.53275 10
      vertex -2.61699 -5.53275 0
      vertex -2.06699 -4.58013 0
    endloop
  endfacet
  facet normal 0.866025 -0.5 0
    outer loop
      vertex -2.06699 -4.58013 10
      vertex -2.61699 -5.53275 10
      vertex -2.06699 -4.58013 0
    endloop
  endfacet
  facet normal 0.5 0.866025 0
    outer loop
      vertex -2.18142 -4.51406 0
      vertex -2.18142 -4.51406 10
      vertex -2.06699 -4.58013 0
    endloop
  endfacet
  facet normal 0.5 0.866025 0
    outer loop
      vertex -2.06699 -4.58013 0
      vertex -2.18142 -4.51406 10
      vertex -2.06699 -4.58013 10
    endloop
  endfacet
  facet normal -0.445738 -0.895163 0
    outer loop
      vertex -2.18142 -4.51406 10
      vertex -2.18142 -4.51406 0
      vertex -1.39568 -4.90531 0
    endloop
  endfacet
  facet normal -0.445738 -0.895163 0
    outer loop
      vertex -1.39568 -4.90531 10
      vertex -2.18142 -4.51406 10
      vertex -1.39568 -4.90531 0
    endloop
  endfacet
  facet normal -0.0922681 -0.995734 0
    outer loop
      vertex -1.39568 -4.90531 10
      vertex -1.39568 -4.90531 0
      vertex -1.02196 -4.93994 0
    endloop
  endfacet
  facet normal -0.0922681 -0.995734 0
    outer loop
      vertex -1.02196 -4.93994 10
      vertex -1.39568 -4.90531 10
      vertex -1.02196 -4.93994 0
    endloop
  endfacet
  facet normal -0.994522 0.104528 0
    outer loop
      vertex -1.13488 -6.01432 0
      vertex -1.13488 -6.01432 10
      vertex -1.02196 -4.93994 0
    endloop
  endfacet
  facet normal -0.994522 0.104528 0
    outer loop
      vertex -1.02196 -4.93994 0
      vertex -1.13488 -6.01432 10
      vertex -1.02196 -4.93994 10
    endloop
  endfacet
  facet normal -0.104528 -0.994522 0
    outer loop
      vertex -1.13488 -6.01432 10
      vertex -1.13488 -6.01432 0
      vertex -0.140363 -6.11885 0
    endloop
  endfacet
  facet normal -0.104528 -0.994522 0
    outer loop
      vertex -0.140363 -6.11885 10
      vertex -1.13488 -6.01432 10
      vertex -0.140363 -6.11885 0
    endloop
  endfacet
  facet normal 0.994522 -0.104528 0
    outer loop
      vertex -0.140363 -6.11885 10
      vertex -0.140363 -6.11885 0
      vertex -0.0261531 -5.03222 0
    endloop
  endfacet
  facet normal 0.994522 -0.104528 0
    outer loop
      vertex -0.0261531 -5.03222 10
      vertex -0.140363 -6.11885 10
      vertex -0.0261531 -5.03222 0
    endloop
  endfacet
  facet normal -0.0922681 -0.995734 0
    outer loop
      vertex -0.0261531 -5.03222 10
      vertex -0.0261531 -5.03222 0
      vertex 0.470569 -5.07824 0
    endloop
  endfacet
  facet normal -0.0922681 -0.995734 0
    outer loop
      vertex 0.470569 -5.07824 10
      vertex -0.0261531 -5.03222 10
      vertex 0.470569 -5.07824 0
    endloop
  endfacet
  facet normal 0.273663 -0.961826 0
    outer loop
      vertex 0.470569 -5.07824 10
      vertex 0.470569 -5.07824 0
      vertex 1.11841 -4.89392 0
    endloop
  endfacet
  facet normal 0.273663 -0.961826 0
    outer loop
      vertex 1.11841 -4.89392 10
      vertex 0.470569 -5.07824 10
      vertex 1.11841 -4.89392 0
    endloop
  endfacet
  facet normal -0.309017 0.951057 0
    outer loop
      vertex 1.06956 -4.90979 0
      vertex 1.06956 -4.90979 10
      vertex 1.11841 -4.89392 0
    endloop
  endfacet
  facet normal -0.309017 0.951057 0
    outer loop
      vertex 1.11841 -4.89392 0
      vertex 1.06956 -4.90979 10
      vertex 1.11841 -4.89392 10
    endloop
  endfacet
  facet normal -0.951057 -0.309017 0
    outer loop
      vertex 1.06956 -4.90979 0
      vertex 1.40948 -5.95595 0
      vertex 1.06956 -4.90979 10
    endloop
  endfacet
  facet normal -0.951057 -0.309017 0
    outer loop
      vertex 1.06956 -4.90979 10
      vertex 1.40948 -5.95595 0
      vertex 1.40948 -5.95595 10
    endloop
  endfacet
  facet normal 0.309017 -0.951057 0
    outer loop
      vertex 1.40948 -5.95595 10
      vertex 1.40948 -5.95595 0
      vertex 2.36053 -5.64694 0
    endloop
  endfacet
  facet normal 0.309017 -0.951057 0
    outer loop
      vertex 2.36053 -5.64694 10
      vertex 1.40948 -5.95595 10
      vertex 2.36053 -5.64694 0
    endloop
  endfacet
  facet normal 0.951057 0.309017 0
    outer loop
      vertex 2.36053 -5.64694 0
      vertex 2.03145 -4.63413 0
      vertex 2.03145 -4.63413 10
    endloop
  endfacet
  facet normal 0.951057 0.309017 0
    outer loop
      vertex 2.36053 -5.64694 10
      vertex 2.36053 -5.64694 0
      vertex 2.03145 -4.63413 10
    endloop
  endfacet
  facet normal 0.273663 -0.961826 0
    outer loop
      vertex 2.03145 -4.63413 10
      vertex 2.03145 -4.63413 0
      vertex 2.27327 -4.56533 0
    endloop
  endfacet
  facet normal 0.273663 -0.961826 0
    outer loop
      vertex 2.27327 -4.56533 10
      vertex 2.03145 -4.63413 10
      vertex 2.27327 -4.56533 0
    endloop
  endfacet
  facet normal 0.602635 -0.798017 0
    outer loop
      vertex 2.27327 -4.56533 10
      vertex 2.27327 -4.56533 0
      vertex 3.07176 -3.96234 0
    endloop
  endfacet
  facet normal 0.602635 -0.798017 0
    outer loop
      vertex 3.07176 -3.96234 10
      vertex 2.27327 -4.56533 10
      vertex 3.07176 -3.96234 0
    endloop
  endfacet
  facet normal -0.669131 0.743145 0
    outer loop
      vertex 2.97408 -4.05029 0
      vertex 2.97408 -4.05029 10
      vertex 3.07176 -3.96234 0
    endloop
  endfacet
  facet normal -0.669131 0.743145 0
    outer loop
      vertex 3.07176 -3.96234 0
      vertex 2.97408 -4.05029 10
      vertex 3.07176 -3.96234 10
    endloop
  endfacet
  facet normal -0.743145 -0.669131 0
    outer loop
      vertex 2.97408 -4.05029 0
      vertex 3.71012 -4.86775 0
      vertex 2.97408 -4.05029 10
    endloop
  endfacet
  facet normal -0.743145 -0.669131 0
    outer loop
      vertex 2.97408 -4.05029 10
      vertex 3.71012 -4.86775 0
      vertex 3.71012 -4.86775 10
    endloop
  endfacet
  facet normal 0.669131 -0.743145 0
    outer loop
      vertex 3.71012 -4.86775 10
      vertex 3.71012 -4.86775 0
      vertex 4.45327 -4.19862 0
    endloop
  endfacet
  facet normal 0.669131 -0.743145 0
    outer loop
      vertex 4.45327 -4.19862 10
      vertex 3.71012 -4.86775 10
      vertex 4.45327 -4.19862 0
    endloop
  endfacet
  facet normal 0.743145 0.669131 0
    outer loop
      vertex 4.45327 -4.19862 0
      vertex 3.76747 -3.43696 0
      vertex 3.76747 -3.43696 10
    endloop
  endfacet
  facet normal 0.743145 0.669131 0
    outer loop
      vertex 4.45327 -4.19862 10
      vertex 4.45327 -4.19862 0
      vertex 3.76747 -3.43696 10
    endloop
  endfacet
  facet normal 0.602635 -0.798017 0
    outer loop
      vertex 3.76747 -3.43696 10
      vertex 3.76747 -3.43696 0
      vertex 3.76894 -3.43585 0
    endloop
  endfacet
  facet normal 0.602635 -0.798017 0
    outer loop
      vertex 3.76894 -3.43585 10
      vertex 3.76747 -3.43696 10
      vertex 3.76894 -3.43585 0
    endloop
  endfacet
  facet normal 0.850217 -0.526432 0
    outer loop
      vertex 3.76894 -3.43585 10
      vertex 3.76894 -3.43585 0
      vertex 4.39009 -2.43267 0
    endloop
  endfacet
  facet normal 0.850217 -0.526432 0
    outer loop
      vertex 4.39009 -2.43267 10
      vertex 3.76894 -3.43585 10
      vertex 4.39009 -2.43267 0
    endloop
  endfacet
  facet normal -0.913545 0.406737 0
    outer loop
      vertex 4.36436 -2.49046 0
      vertex 4.36436 -2.49046 10
      vertex 4.39009 -2.43267 0
    endloop
  endfacet
  facet normal -0.913545 0.406737 0
    outer loop
      vertex 4.39009 -2.43267 0
      vertex 4.36436 -2.49046 10
      vertex 4.39009 -2.43267 10
    endloop
  endfacet
  facet normal -0.406737 -0.913545 0
    outer loop
      vertex 4.36436 -2.49046 10
      vertex 4.36436 -2.49046 0
      vertex 5.36926 -2.93787 0
    endloop
  endfacet
  facet normal -0.406737 -0.913545 0
    outer loop
      vertex 5.36926 -2.93787 10
      vertex 4.36436 -2.49046 10
      vertex 5.36926 -2.93787 0
    endloop
  endfacet
  facet normal 0.913545 -0.406737 0
    outer loop
      vertex 5.36926 -2.93787 10
      vertex 5.36926 -2.93787 0
      vertex 5.776 -2.02432 0
    endloop
  endfacet
  facet normal 0.913545 -0.406737 0
    outer loop
      vertex 5.776 -2.02432 10
      vertex 5.36926 -2.93787 10
      vertex 5.776 -2.02432 0
    endloop
  endfacet
  facet normal 0.406737 0.913545 0
    outer loop
      vertex 4.8026 -1.59094 0
      vertex 4.8026 -1.59094 10
      vertex 5.776 -2.02432 0
    endloop
  endfacet
  facet normal 0.406737 0.913545 0
    outer loop
      vertex 5.776 -2.02432 0
      vertex 4.8026 -1.59094 10
      vertex 5.776 -2.02432 10
    endloop
  endfacet
  facet normal 0.982973 -0.18375 0
    outer loop
      vertex 4.8026 -1.59094 10
      vertex 4.8026 -1.59094 0
      vertex 5.00653 -0.5 0
    endloop
  endfacet
  facet normal 0.982973 -0.18375 0
    outer loop
      vertex 5.00653 -0.5 10
      vertex 4.8026 -1.59094 10
      vertex 5.00653 -0.5 0
    endloop
  endfacet
  facet normal -2.44929e-16 -1 0
    outer loop
      vertex 5.00653 -0.5 10
      vertex 5.00653 -0.5 0
      vertex 6.1 -0.5 0
    endloop
  endfacet
  facet normal -2.44929e-16 -1 0
    outer loop
      vertex 6.1 -0.5 10
      vertex 5.00653 -0.5 10
      vertex 6.1 -0.5 0
    endloop
  endfacet
  facet normal 1 0 0
    outer loop
      vertex 6.1 -0.5 10
      vertex 6.1 -0.5 0
      vertex 6.1 -1.49407e-15 0
    endloop
  endfacet
  facet normal 1 0 0
    outer loop
      vertex 6.1 -1.49407e-15 10
      vertex 6.1 -0.5 10
      vertex 6.1 -1.49407e-15 0
    endloop
  endfacet
  facet normal 1 -2.44929e-16 0
    outer loop
      vertex 6.1 -1.49407e-15 10
      vertex 6.1 -1.49407e-15 0
      vertex 6.1 0.5 0
    endloop
  endfacet
  facet normal 1 -2.44929e-16 0
    outer loop
      vertex 6.1 0.5 10
      vertex 6.1 -1.49407e-15 10
      vertex 6.1 0.5 0
    endloop
  endfacet
  facet normal 0 1 0
    outer loop
      vertex 5.00653 0.5 0
      vertex 5.00653 0.5 10
      vertex 6.1 0.5 0
    endloop
  endfacet
  facet normal 0 1 0
    outer loop
      vertex 6.1 0.5 0
      vertex 5.00653 0.5 10
      vertex 6.1 0.5 10
    endloop
  endfacet
  facet normal 0.982973 0.18375 0
    outer loop
      vertex 5.00653 0.5 0
      vertex 4.8026 1.59094 0
      vertex 4.8026 1.59094 10
    endloop
  endfacet
  facet normal 0.982973 0.18375 0
    outer loop
      vertex 5.00653 0.5 10
      vertex 5.00653 0.5 0
      vertex 4.8026 1.59094 10
    endloop
  endfacet
  facet normal 0.406737 -0.913545 0
    outer loop
      vertex 4.8026 1.59094 10
      vertex 4.8026 1.59094 0
      vertex 5.776 2.02432 0
    endloop
  endfacet
  facet normal 0.406737 -0.913545 0
    outer loop
      vertex 5.776 2.02432 10
      vertex 4.8026 1.59094 10
      vertex 5.776 2.02432 0
    endloop
  endfacet
  facet normal 0.913545 0.406737 0
    outer loop
      vertex 5.776 2.02432 0
      vertex 5.36926 2.93787 0
      vertex 5.36926 2.93787 10
    endloop
  endfacet
  facet normal 0.913545 0.406737 0
    outer loop
      vertex 5.776 2.02432 10
      vertex 5.776 2.02432 0
      vertex 5.36926 2.93787 10
    endloop
  endfacet
  facet normal -0.406737 0.913545 0
    outer loop
      vertex 4.36436 2.49046 0
      vertex 4.36436 2.49046 10
      vertex 5.36926 2.93787 0
    endloop
  endfacet
  facet normal -0.406737 0.913545 0
    outer loop
      vertex 5.36926 2.93787 0
      vertex 4.36436 2.49046 10
      vertex 5.36926 2.93787 10
    endloop
  endfacet
  facet normal -0.913545 -0.406737 0
    outer loop
      vertex 4.36436 2.49046 0
      vertex 4.39009 2.43267 0
      vertex 4.36436 2.49046 10
    endloop
  endfacet
  facet normal -0.913545 -0.406737 0
    outer loop
      vertex 4.36436 2.49046 10
      vertex 4.39009 2.43267 0
      vertex 4.39009 2.43267 10
    endloop
  endfacet
  facet normal 0.850217 0.526432 0
    outer loop
      vertex 4.39009 2.43267 0
      vertex 3.76894 3.43585 0
      vertex 3.76894 3.43585 10
    endloop
  endfacet
  facet normal 0.850217 0.526432 0
    outer loop
      vertex 4.39009 2.43267 10
      vertex 4.39009 2.43267 0
      vertex 3.76894 3.43585 10
    endloop
  endfacet
  facet normal 0.602635 0.798017 0
    outer loop
      vertex 3.76747 3.43696 0
      vertex 3.76747 3.43696 10
      vertex 3.76894 3.43585 0
    endloop
  endfacet
  facet normal 0.602635 0.798017 0
    outer loop
      vertex 3.76894 3.43585 0
      vertex 3.76747 3.43696 10
      vertex 3.76894 3.43585 10
    endloop
  endfacet
  facet normal 0.743145 -0.669131 0
    outer loop
      vertex 3.76747 3.43696 10
      vertex 3.76747 3.43696 0
      vertex 4.45327 4.19862 0
    endloop
  endfacet
  facet normal 0.743145 -0.669131 0
    outer loop
      vertex 4.45327 4.19862 10
      vertex 3.76747 3.43696 10
      vertex 4.45327 4.19862 0
    endloop
  endfacet
  facet normal 0.669131 0.743145 0
    outer loop
      vertex 3.71012 4.86775 0
      vertex 3.71012 4.86775 10
      vertex 4.45327 4.19862 0
    endloop
  endfacet
  facet normal 0.669131 0.743145 0
    outer loop
      vertex 4.45327 4.19862 0
      vertex 3.71012 4.86775 10
      vertex 4.45327 4.19862 10
    endloop
  endfacet
  facet normal -0.743145 0.669131 0
    outer loop
      vertex 2.97408 4.05029 0
      vertex 2.97408 4.05029 10
      vertex 3.71012 4.86775 0
    endloop
  endfacet
  facet normal -0.743145 0.669131 0
    outer loop
      vertex 3.71012 4.86775 0
      vertex 2.97408 4.05029 10
      vertex 3.71012 4.86775 10
    endloop
  endfacet
  facet normal -0.669131 -0.743145 0
    outer loop
      vertex 2.97408 4.05029 10
      vertex 2.97408 4.05029 0
      vertex 3.07176 3.96234 0
    endloop
  endfacet
  facet normal -0.669131 -0.743145 0
    outer loop
      vertex 3.07176 3.96234 10
      vertex 2.97408 4.05029 10
      vertex 3.07176 3.96234 0
    endloop
  endfacet
  facet normal 0.602635 0.798017 0
    outer loop
      vertex 2.27327 4.56533 0
      vertex 2.27327 4.56533 10
      vertex 3.07176 3.96234 0
    endloop
  endfacet
  facet normal 0.602635 0.798017 0
    outer loop
      vertex 3.07176 3.96234 0
      vertex 2.27327 4.56533 10
      vertex 3.07176 3.96234 10
    endloop
  endfacet
  facet normal 0.273663 0.961826 0
    outer loop
      vertex 2.03145 4.63413 0
      vertex 2.03145 4.63413 10
      vertex 2.27327 4.56533 0
    endloop
  endfacet
  facet normal 0.273663 0.961826 0
    outer loop
      vertex 2.27327 4.56533 0
      vertex 2.03145 4.63413 10
      vertex 2.27327 4.56533 10
    endloop
  endfacet
  facet normal 0.951057 -0.309017 0
    outer loop
      vertex 2.03145 4.63413 10
      vertex 2.03145 4.63413 0
      vertex 2.36053 5.64694 0
    endloop
  endfacet
  facet normal 0.951057 -0.309017 0
    outer loop
      vertex 2.36053 5.64694 10
      vertex 2.03145 4.63413 10
      vertex 2.36053 5.64694 0
    endloop
  endfacet
  facet normal 0.309017 0.951057 0
    outer loop
      vertex 1.40948 5.95595 0
      vertex 1.40948 5.95595 10
      vertex 2.36053 5.64694 0
    endloop
  endfacet
  facet normal 0.309017 0.951057 0
    outer loop
      vertex 2.36053 5.64694 0
      vertex 1.40948 5.95595 10
      vertex 2.36053 5.64694 10
    endloop
  endfacet
  facet normal -0.951057 0.309017 0
    outer loop
      vertex 1.06956 4.90979 0
      vertex 1.06956 4.90979 10
      vertex 1.40948 5.95595 0
    endloop
  endfacet
  facet normal -0.951057 0.309017 0
    outer loop
      vertex 1.40948 5.95595 0
      vertex 1.06956 4.90979 10
      vertex 1.40948 5.95595 10
    endloop
  endfacet
  facet normal -0.309017 -0.951057 0
    outer loop
      vertex 1.06956 4.90979 10
      vertex 1.06956 4.90979 0
      vertex 1.11841 4.89392 0
    endloop
  endfacet
  facet normal -0.309017 -0.951057 0
    outer loop
      vertex 1.11841 4.89392 10
      vertex 1.06956 4.90979 10
      vertex 1.11841 4.89392 0
    endloop
  endfacet
  facet normal 0.273663 0.961826 0
    outer loop
      vertex 0.470569 5.07824 0
      vertex 0.470569 5.07824 10
      vertex 1.11841 4.89392 0
    endloop
  endfacet
  facet normal 0.273663 0.961826 0
    outer loop
      vertex 1.11841 4.89392 0
      vertex 0.470569 5.07824 10
      vertex 1.11841 4.89392 10
    endloop
  endfacet
  facet normal -0.0922681 0.995734 0
    outer loop
      vertex -0.0261531 5.03222 0
      vertex -0.0261531 5.03222 10
      vertex 0.470569 5.07824 0
    endloop
  endfacet
  facet normal -0.0922681 0.995734 0
    outer loop
      vertex 0.470569 5.07824 0
      vertex -0.0261531 5.03222 10
      vertex 0.470569 5.07824 10
    endloop
  endfacet
  facet normal 0.994522 0.104528 0
    outer loop
      vertex -0.0261531 5.03222 0
      vertex -0.140363 6.11885 0
      vertex -0.140363 6.11885 10
    endloop
  endfacet
  facet normal 0.994522 0.104528 0
    outer loop
      vertex -0.0261531 5.03222 10
      vertex -0.0261531 5.03222 0
      vertex -0.140363 6.11885 10
    endloop
  endfacet
  facet normal -0.104528 0.994522 0
    outer loop
      vertex -1.13488 6.01432 0
      vertex -1.13488 6.01432 10
      vertex -0.140363 6.11885 0
    endloop
  endfacet
  facet normal -0.104528 0.994522 0
    outer loop
      vertex -0.140363 6.11885 0
      vertex -1.13488 6.01432 10
      vertex -0.140363 6.11885 10
    endloop
  endfacet
  facet normal -0.994522 -0.104528 0
    outer loop
      vertex -1.13488 6.01432 0
      vertex -1.02196 4.93994 0
      vertex -1.13488 6.01432 10
    endloop
  endfacet
  facet normal -0.994522 -0.104528 0
    outer loop
      vertex -1.13488 6.01432 10
      vertex -1.02196 4.93994 0
      vertex -1.02196 4.93994 10
    endloop
  endfacet
  facet normal -0.0922681 0.995734 0
    outer loop
      vertex -1.39568 4.90531 0
      vertex -1.39568 4.90531 10
      vertex -1.02196 4.93994 0
    endloop
  endfacet
  facet normal -0.0922681 0.995734 0
    outer loop
      vertex -1.02196 4.93994 0
      vertex -1.39568 4.90531 10
      vertex -1.02196 4.93994 10
    endloop
  endfacet
  facet normal -0.445738 0.895163 0
    outer loop
      vertex -2.18142 4.51406 0
      vertex -2.18142 4.51406 10
      vertex -1.39568 4.90531 0
    endloop
  endfacet
  facet normal -0.445738 0.895163 0
    outer loop
      vertex -1.39568 4.90531 0
      vertex -2.18142 4.51406 10
      vertex -1.39568 4.90531 10
    endloop
  endfacet
  facet normal 0.5 -0.866025 0
    outer loop
      vertex -2.18142 4.51406 10
      vertex -2.18142 4.51406 0
      vertex -2.06699 4.58013 0
    endloop
  endfacet
  facet normal 0.5 -0.866025 0
    outer loop
      vertex -2.06699 4.58013 10
      vertex -2.18142 4.51406 10
      vertex -2.06699 4.58013 0
    endloop
  endfacet
  facet normal 0.866025 0.5 0
    outer loop
      vertex -2.06699 4.58013 0
      vertex -2.61699 5.53275 0
      vertex -2.61699 5.53275 10
    endloop
  endfacet
  facet normal 0.866025 0.5 0
    outer loop
      vertex -2.06699 4.58013 10
      vertex -2.06699 4.58013 0
      vertex -2.61699 5.53275 10
    endloop
  endfacet
  facet normal -0.5 0.866025 0
    outer loop
      vertex -3.48301 5.03275 0
      vertex -3.48301 5.03275 10
      vertex -2.61699 5.53275 0
    endloop
  endfacet
  facet normal -0.5 0.866025 0
    outer loop
      vertex -2.61699 5.53275 0
      vertex -3.48301 5.03275 10
      vertex -2.61699 5.53275 10
    endloop
  endfacet
  facet normal -0.866025 -0.5 0
    outer loop
      vertex -3.48301 5.03275 0
      vertex -2.95978 4.12648 0
      vertex -3.48301 5.03275 10
    endloop
  endfacet
  facet normal -0.866025 -0.5 0
    outer loop
      vertex -3.48301 5.03275 10
      vertex -2.95978 4.12648 0
      vertex -2.95978 4.12648 10
    endloop
  endfacet
  facet normal -0.445738 0.895163 0
    outer loop
      vertex -3.07344 4.06989 0
      vertex -3.07344 4.06989 10
      vertex -2.95978 4.12648 0
    endloop
  endfacet
  facet normal -0.445738 0.895163 0
    outer loop
      vertex -2.95978 4.12648 0
      vertex -3.07344 4.06989 10
      vertex -2.95978 4.12648 10
    endloop
  endfacet
  facet normal -0.739009 0.673695 0
    outer loop
      vertex -3.81206 3.25965 0
      vertex -3.81206 3.25965 10
      vertex -3.07344 4.06989 0
    endloop
  endfacet
  facet normal -0.739009 0.673695 0
    outer loop
      vertex -3.07344 4.06989 0
      vertex -3.81206 3.25965 10
      vertex -3.07344 4.06989 10
    endloop
  endfacet
  facet normal 0.809017 -0.587785 0
    outer loop
      vertex -3.81206 3.25965 10
      vertex -3.81206 3.25965 0
      vertex -3.75119 3.34343 0
    endloop
  endfacet
  facet normal 0.809017 -0.587785 0
    outer loop
      vertex -3.75119 3.34343 10
      vertex -3.81206 3.25965 10
      vertex -3.75119 3.34343 0
    endloop
  endfacet
  facet normal 0.587785 0.809017 0
    outer loop
      vertex -4.64111 3.99 0
      vertex -4.64111 3.99 10
      vertex -3.75119 3.34343 0
    endloop
  endfacet
  facet normal 0.587785 0.809017 0
    outer loop
      vertex -3.75119 3.34343 0
      vertex -4.64111 3.99 10
      vertex -3.75119 3.34343 10
    endloop
  endfacet
  facet normal -0.809017 0.587785 0
    outer loop
      vertex -5.2289 3.18098 0
      vertex -5.2289 3.18098 10
      vertex -4.64111 3.99 0
    endloop
  endfacet
  facet normal -0.809017 0.587785 0
    outer loop
      vertex -4.64111 3.99 0
      vertex -5.2289 3.18098 10
      vertex -4.64111 3.99 10
    endloop
  endfacet
  facet normal -0.587785 -0.809017 0
    outer loop
      vertex -5.2289 3.18098 10
      vertex -5.2289 3.18098 0
      vertex -4.3822 2.56582 0
    endloop
  endfacet
  facet normal -0.587785 -0.809017 0
    outer loop
      vertex -4.3822 2.56582 10
      vertex -5.2289 3.18098 10
      vertex -4.3822 2.56582 0
    endloop
  endfacet
  facet normal -0.932472 0.361242 0
    outer loop
      vertex -4.79015 1.51278 0
      vertex -4.79015 1.51278 10
      vertex -4.3822 2.56582 0
    endloop
  endfacet
  facet normal -0.932472 0.361242 0
    outer loop
      vertex -4.3822 2.56582 0
      vertex -4.79015 1.51278 10
      vertex -4.3822 2.56582 10
    endloop
  endfacet
  facet normal 0.978148 -0.207912 0
    outer loop
      vertex -4.79015 1.51278 10
      vertex -4.79015 1.51278 0
      vertex -4.78678 1.52863 0
    endloop
  endfacet
  facet normal 0.978148 -0.207912 0
    outer loop
      vertex -4.78678 1.52863 10
      vertex -4.79015 1.51278 10
      vertex -4.78678 1.52863 0
    endloop
  endfacet
  facet normal 0.207912 0.978148 0
    outer loop
      vertex -5.86274 1.75734 0
      vertex -5.86274 1.75734 10
      vertex -4.78678 1.52863 0
    endloop
  endfacet
  facet normal 0.207912 0.978148 0
    outer loop
      vertex -4.78678 1.52863 0
      vertex -5.86274 1.75734 10
      vertex -4.78678 1.52863 10
    endloop
  endfacet
  facet normal -0.978148 0.207912 0
    outer loop
      vertex -6.07066 0.779188 0
      vertex -6.07066 0.779188 10
      vertex -5.86274 1.75734 0
    endloop
  endfacet
  facet normal -0.978148 0.207912 0
    outer loop
      vertex -5.86274 1.75734 0
      vertex -6.07066 0.779188 10
      vertex -5.86274 1.75734 10
    endloop
  endfacet
  facet normal -0.207912 -0.978148 0
    outer loop
      vertex -6.07066 0.779188 10
      vertex -6.07066 0.779188 0
      vertex -5.01316 0.55441 0
    endloop
  endfacet
  facet normal -0.207912 -0.978148 0
    outer loop
      vertex -5.01316 0.55441 10
      vertex -6.07066 0.779188 10
      vertex -5.01316 0.55441 0
    endloop
  endfacet
  facet normal -1 0 0
    outer loop
      vertex -5.01316 -0.55441 0
      vertex -5.01316 -0.55441 10
      vertex -5.01316 0.55441 0
    endloop
  endfacet
  facet normal -1 0 0
    outer loop
      vertex -5.01316 0.55441 0
      vertex -5.01316 -0.55441 10
      vertex -5.01316 0.55441 10
    endloop
  endfacet
  facet normal 1 0 0
    outer loop
      vertex -2.3 -2.6327 7
      vertex -2.3 -2.6327 0
      vertex -2.3 2.6327 0
    endloop
  endfacet
  facet normal 1 0 0
    outer loop
      vertex -2.3 2.6327 7
      vertex -2.3 -2.6327 7
      vertex -2.3 2.6327 0
    endloop
  endfacet
  facet normal 0.841254 -0.54064 0
    outer loop
      vertex -2.29201 2.64512 0
      vertex -2.29201 2.64512 7
      vertex -2.3 2.6327 7
    endloop
  endfacet
  facet normal 0.841254 -0.54064 0
    outer loop
      vertex -2.3 2.6327 0
      vertex -2.29201 2.64512 0
      vertex -2.3 2.6327 7
    endloop
  endfacet
  facet normal 0.415415 -0.909632 0
    outer loop
      vertex -0.498102 3.46437 0
      vertex -0.498102 3.46437 7
      vertex -2.29201 2.64512 7
    endloop
  endfacet
  facet normal 0.415415 -0.909632 0
    outer loop
      vertex -2.29201 2.64512 0
      vertex -0.498102 3.46437 0
      vertex -2.29201 2.64512 7
    endloop
  endfacet
  facet normal -0.142315 -0.989821 0
    outer loop
      vertex 1.45395 3.18371 0
      vertex 1.45395 3.18371 7
      vertex -0.498102 3.46437 7
    endloop
  endfacet
  facet normal -0.142315 -0.989821 0
    outer loop
      vertex -0.498102 3.46437 0
      vertex 1.45395 3.18371 0
      vertex -0.498102 3.46437 7
    endloop
  endfacet
  facet normal -0.654861 -0.755749 0
    outer loop
      vertex 2.3 2.45061 0
      vertex 2.3 2.45061 7
      vertex 1.45395 3.18371 7
    endloop
  endfacet
  facet normal -0.654861 -0.755749 0
    outer loop
      vertex 1.45395 3.18371 0
      vertex 2.3 2.45061 0
      vertex 1.45395 3.18371 7
    endloop
  endfacet
  facet normal -1 0 0
    outer loop
      vertex 2.3 -2.45061 0
      vertex 2.3 -2.45061 7
      vertex 2.3 2.45061 0
    endloop
  endfacet
  facet normal -1 0 0
    outer loop
      vertex 2.3 2.45061 0
      vertex 2.3 -2.45061 7
      vertex 2.3 2.45061 7
    endloop
  endfacet
  facet normal -0.654861 0.755749 0
    outer loop
      vertex 2.3 -2.45061 7
      vertex 2.3 -2.45061 0
      vertex 1.45395 -3.18371 7
    endloop
  endfacet
  facet normal -0.654861 0.755749 0
    outer loop
      vertex 1.45395 -3.18371 7
      vertex 2.3 -2.45061 0
      vertex 1.45395 -3.18371 0
    endloop
  endfacet
  facet normal -0.142315 0.989821 0
    outer loop
      vertex 1.45395 -3.18371 7
      vertex 1.45395 -3.18371 0
      vertex -0.498102 -3.46437 7
    endloop
  endfacet
  facet normal -0.142315 0.989821 0
    outer loop
      vertex -0.498102 -3.46437 7
      vertex 1.45395 -3.18371 0
      vertex -0.498102 -3.46437 0
    endloop
  endfacet
  facet normal 0.415415 0.909632 0
    outer loop
      vertex -0.498102 -3.46437 7
      vertex -0.498102 -3.46437 0
      vertex -2.29201 -2.64512 7
    endloop
  endfacet
  facet normal 0.415415 0.909632 0
    outer loop
      vertex -2.29201 -2.64512 7
      vertex -0.498102 -3.46437 0
      vertex -2.29201 -2.64512 0
    endloop
  endfacet
  facet normal 0.841254 0.54064 0
    outer loop
      vertex -2.3 -2.6327 7
      vertex -2.29201 -2.64512 7
      vertex -2.29201 -2.64512 0
    endloop
  endfacet
  facet normal 0.841254 0.54064 0
    outer loop
      vertex -2.3 -2.6327 0
      vertex -2.3 -2.6327 7
      vertex -2.29201 -2.64512 0
    endloop
  endfacet
  facet normal 1 0 0
    outer loop
      vertex -0.809017 0.587785 7
      vertex -0.809017 0.587785 10
      vertex -0.809017 -0.587785 10
    endloop
  endfacet
  facet normal 1 0 0
    outer loop
      vertex -0.809017 -0.587785 7
      vertex -0.809017 0.587785 7
      vertex -0.809017 -0.587785 10
    endloop
  endfacet
  facet normal 0.309018 0.951056 0
    outer loop
      vertex 0.309017 -0.951057 10
      vertex 0.309017 -0.951057 7
      vertex -0.809017 -0.587785 10
    endloop
  endfacet
  facet normal 0.309018 0.951056 0
    outer loop
      vertex -0.809017 -0.587785 10
      vertex 0.309017 -0.951057 7
      vertex -0.809017 -0.587785 7
    endloop
  endfacet
  facet normal -0.809017 0.587785 0
    outer loop
      vertex 1 0 10
      vertex 1 0 7
      vertex 0.309017 -0.951057 10
    endloop
  endfacet
  facet normal -0.809017 0.587785 0
    outer loop
      vertex 0.309017 -0.951057 10
      vertex 1 0 7
      vertex 0.309017 -0.951057 7
    endloop
  endfacet
  facet normal -0.809017 -0.587785 0
    outer loop
      vertex 1 0 10
      vertex 0.309017 0.951057 10
      vertex 1 0 7
    endloop
  endfacet
  facet normal -0.809017 -0.587785 0
    outer loop
      vertex 1 0 7
      vertex 0.309017 0.951057 10
      vertex 0.309017 0.951057 7
    endloop
  endfacet
  facet normal 0.309018 -0.951056 0
    outer loop
      vertex 0.309017 0.951057 7
      vertex 0.309017 0.951057 10
      vertex -0.809017 0.587785 10
    endloop
  endfacet
  facet normal 0.309018 -0.951056 0
    outer loop
      vertex -0.809017 0.587785 7
      vertex 0.309017 0.951057 7
      vertex -0.809017 0.587785 10
    endloop
  endfacet
  facet normal 0 0 -1
    outer loop
      vertex -2.29201 2.64512 7
      vertex -0.498102 3.46437 7
      vertex -2.3 2.6327 7
    endloop
  endfacet
  facet normal 0 0 -1
    outer loop
      vertex -2.3 2.6327 7
      vertex -0.498102 3.46437 7
      vertex 1.45395 3.18371 7
    endloop
  endfacet
  facet normal 0 0 -1
    outer loop
      vertex -2.3 2.6327 7
      vertex 1.45395 3.18371 7
      vertex 2.3 2.45061 7
    endloop
  endfacet
  facet normal 0 0 -1
    outer loop
      vertex 1 0 7
      vertex 2.3 2.45061 7
      vertex 2.3 -2.45061 7
    endloop
  endfacet
  facet normal 0 0 -1
    outer loop
      vertex 0.309017 -0.951057 7
      vertex 2.3 -2.45061 7
      vertex 1.45395 -3.18371 7
    endloop
  endfacet
  facet normal 0 0 -1
    outer loop
      vertex -0.809017 -0.587785 7
      vertex 1.45395 -3.18371 7
      vertex -0.498102 -3.46437 7
    endloop
  endfacet
  facet normal 0 0 -1
    outer loop
      vertex -2.3 2.6327 7
      vertex -0.498102 -3.46437 7
      vertex -2.29201 -2.64512 7
    endloop
  endfacet
  facet normal 0 0 -1
    outer loop
      vertex -2.3 2.6327 7
      vertex -2.29201 -2.64512 7
      vertex -2.3 -2.6327 7
    endloop
  endfacet
  facet normal 0 0 -1
    outer loop
      vertex 0.309017 -0.951057 7
      vertex 1.45395 -3.18371 7
      vertex -0.809017 -0.587785 7
    endloop
  endfacet
  facet normal 0 0 -1
    outer loop
      vertex -2.3 2.6327 7
      vertex -0.809017 -0.587785 7
      vertex -0.498102 -3.46437 7
    endloop
  endfacet
  facet normal 0 0 -1
    outer loop
      vertex 0.309017 0.951057 7
      vertex 2.3 2.45061 7
      vertex 1 0 7
    endloop
  endfacet
  facet normal 0 0 -1
    outer loop
      vertex -0.809017 0.587785 7
      vertex -2.3 2.6327 7
      vertex 0.309017 0.951057 7
    endloop
  endfacet
  facet normal 0 0 -1
    outer loop
      vertex -2.3 2.6327 7
      vertex 2.3 2.45061 7
      vertex 0.309017 0.951057 7
    endloop
  endfacet
  facet normal 0 0 -1
    outer loop
      vertex -0.809017 -0.587785 7
      vertex -2.3 2.6327 7
      vertex -0.809017 0.587785 7
    endloop
  endfacet
  facet normal 0 0 -1
    outer loop
      vertex 1 0 7
      vertex 2.3 -2.45061 7
      vertex 0.309017 -0.951057 7
    endloop
  endfacet
endsolid OpenSCAD_Model
