solid OpenSCAD_Model
  facet normal -0.978148 -0.207912 0
    outer loop
      vertex -6.07066 -0.779188 0
      vertex -5.86274 -1.75734 0
      vertex -6.07066 -0.779188 10
    endloop
  endfacet
  facet normal -0.978148 -0.207912 0
    outer loop
      vertex -6.07066 -0.779188 10
      vertex -5.86274 -1.75734 0
      vertex -5.86274 -1.75734 10
    endloop
  endfacet
  facet normal 0 0 -1
    outer loop
      vertex -6.07066 -0.779188 0
      vertex -4.89688 -0.529693 0
      vertex -5.86274 -1.75734 0
    endloop
  endfacet
  facet normal 0 0 -1
    outer loop
      vertex -5.86274 -1.75734 0
      vertex -4.89688 -0.529693 0
      vertex -4.86196 -0.69398 0
    endloop
  endfacet
  facet normal 0 0 -1
    outer loop
      vertex -5 0 0
      vertex -4.86196 0.69398 0
      vertex -4.86196 -0.69398 0
    endloop
  endfacet
  facet normal 0 0 -1
    outer loop
      vertex -5.2289 3.18098 0
      vertex -4.07953 2.72139 0
      vertex -4.25808 2.47564 0
    endloop
  endfacet
  facet normal 0 0 -1
    outer loop
      vertex -4.86196 0.69398 0
      vertex -6.07066 0.779188 0
      vertex -5.86274 1.75734 0
    endloop
  endfacet
  facet normal 0 0 -1
    outer loop
      vertex -4.86196 0.69398 0
      vertex -5.86274 1.75734 0
      vertex -4.69962 1.51011 0
    endloop
  endfacet
  facet normal 0 0 -1
    outer loop
      vertex -4.86196 0.69398 0
      vertex -4.69962 1.51011 0
      vertex -4.86196 -0.69398 0
    endloop
  endfacet
  facet normal 0 0 -1
    outer loop
      vertex -4.69962 1.51011 0
      vertex -4.6194 1.91342 0
      vertex -4.86196 -0.69398 0
    endloop
  endfacet
  facet normal 0 0 -1
    outer loop
      vertex -4.86196 -0.69398 0
      vertex -4.6194 1.91342 0
      vertex -4.07953 2.72139 0
    endloop
  endfacet
  facet normal 0 0 -1
    outer loop
      vertex -3.48301 5.03275 0
      vertex -2.64091 4.1333 0
      vertex -2.88301 3.99352 0
    endloop
  endfacet
  facet normal 0 0 -1
    outer loop
      vertex -4.07953 2.72139 0
      vertex -5.2289 3.18098 0
      vertex -4.64111 3.99 0
    endloop
  endfacet
  facet normal 0 0 -1
    outer loop
      vertex -4.07953 2.72139 0
      vertex -4.64111 3.99 0
      vertex -3.69242 3.30074 0
    endloop
  endfacet
  facet normal 0 0 -1
    outer loop
      vertex -4.07953 2.72139 0
      vertex -3.69242 3.30074 0
      vertex -4.86196 -0.69398 0
    endloop
  endfacet
  facet normal 0 0 -1
    outer loop
      vertex -3.69242 3.30074 0
      vertex -3.53553 3.53553 0
      vertex -4.86196 -0.69398 0
    endloop
  endfacet
  facet normal 0 0 -1
    outer loop
      vertex -4.86196 -0.69398 0
      vertex -3.53553 3.53553 0
      vertex -2.64091 4.1333 0
    endloop
  endfacet
  facet normal 0 0 -1
    outer loop
      vertex -1.13488 6.01432 0
      vertex -0.778286 4.84519 0
      vertex -1.00945 4.82089 0
    endloop
  endfacet
  facet normal 0 0 -1
    outer loop
      vertex -2.64091 4.1333 0
      vertex -3.48301 5.03275 0
      vertex -2.61699 5.53275 0
    endloop
  endfacet
  facet normal 0 0 -1
    outer loop
      vertex -2.64091 4.1333 0
      vertex -2.61699 5.53275 0
      vertex -2.0406 4.53442 0
    endloop
  endfacet
  facet normal 0 0 -1
    outer loop
      vertex -2.64091 4.1333 0
      vertex -2.0406 4.53442 0
      vertex -4.86196 -0.69398 0
    endloop
  endfacet
  facet normal 0 0 -1
    outer loop
      vertex -2.0406 4.53442 0
      vertex -1.91342 4.6194 0
      vertex -4.86196 -0.69398 0
    endloop
  endfacet
  facet normal 0 0 -1
    outer loop
      vertex -2.4 2.65429 0
      vertex -1.91342 4.6194 0
      vertex -0.778286 4.84519 0
    endloop
  endfacet
  facet normal 0 0 -1
    outer loop
      vertex 1.40948 5.95595 0
      vertex 1.20759 4.7598 0
      vertex 1.03866 4.81469 0
    endloop
  endfacet
  facet normal 0 0 -1
    outer loop
      vertex -0.778286 4.84519 0
      vertex -1.13488 6.01432 0
      vertex -0.140363 6.11885 0
    endloop
  endfacet
  facet normal 0 0 -1
    outer loop
      vertex -0.778286 4.84519 0
      vertex -0.140363 6.11885 0
      vertex -0.0223008 4.99556 0
    endloop
  endfacet
  facet normal 0 0 -1
    outer loop
      vertex 0 3.7 0
      vertex 0 5 0
      vertex 1.20759 4.7598 0
    endloop
  endfacet
  facet normal 0 0 -1
    outer loop
      vertex 3.71012 4.86775 0
      vertex 2.99579 3.89618 0
      vertex 2.90717 3.97597 0
    endloop
  endfacet
  facet normal 0 0 -1
    outer loop
      vertex 1.20759 4.7598 0
      vertex 1.40948 5.95595 0
      vertex 2.36053 5.64694 0
    endloop
  endfacet
  facet normal 0 0 -1
    outer loop
      vertex 1.85 3.20429 0
      vertex 2.00646 4.55723 0
      vertex 2.99579 3.89618 0
    endloop
  endfacet
  facet normal 0 0 -1
    outer loop
      vertex 5.36926 2.93787 0
      vertex 4.29696 2.39598 0
      vertex 4.273 2.44978 0
    endloop
  endfacet
  facet normal 0 0 -1
    outer loop
      vertex 2.99579 3.89618 0
      vertex 3.71012 4.86775 0
      vertex 4.45327 4.19862 0
    endloop
  endfacet
  facet normal 0 0 -1
    outer loop
      vertex 2.4 2.65429 0
      vertex 4.45327 4.19862 0
      vertex 3.67214 3.33109 0
    endloop
  endfacet
  facet normal 0 0 -1
    outer loop
      vertex 4.29696 2.39598 0
      vertex 5.36926 2.93787 0
      vertex 5.776 2.02432 0
    endloop
  endfacet
  facet normal 0 0 -1
    outer loop
      vertex -2.4 -2.65429 0
      vertex -4.69962 -1.51011 0
      vertex -4.86196 -0.69398 0
    endloop
  endfacet
  facet normal 0 0 -1
    outer loop
      vertex -2.4 -2.65429 0
      vertex -4.86196 -0.69398 0
      vertex -2.4 2.65429 0
    endloop
  endfacet
  facet normal 0 0 -1
    outer loop
      vertex 4.90054 -0.5 0
      vertex 6.1 -1.49407e-15 0
      vertex 6.1 -0.5 0
    endloop
  endfacet
  facet normal 0 0 -1
    outer loop
      vertex -1.85 3.20429 0
      vertex -0.0223008 4.99556 0
      vertex 0 5 0
    endloop
  endfacet
  facet normal 0 0 -1
    outer loop
      vertex -1.85 3.20429 0
      vertex 0 5 0
      vertex 0 3.7 0
    endloop
  endfacet
  facet normal 0 0 -1
    outer loop
      vertex 0 3.7 0
      vertex 1.20759 4.7598 0
      vertex 2.36053 5.64694 0
    endloop
  endfacet
  facet normal 0 0 -1
    outer loop
      vertex 4.273 -2.44978 0
      vertex 5.776 -2.02432 0
      vertex 5.36926 -2.93787 0
    endloop
  endfacet
  facet normal 0 0 -1
    outer loop
      vertex 4.29696 -2.39598 0
      vertex 5.776 -2.02432 0
      vertex 4.273 -2.44978 0
    endloop
  endfacet
  facet normal 0 0 -1
    outer loop
      vertex 2.4 2.65429 0
      vertex 5.776 2.02432 0
      vertex 4.69323 1.54224 0
    endloop
  endfacet
  facet normal 0 0 -1
    outer loop
      vertex 0 3.7 0
      vertex 2.36053 5.64694 0
      vertex 2.00646 4.55723 0
    endloop
  endfacet
  facet normal 0 0 -1
    outer loop
      vertex 1.85 -3.20429 0
      vertex 3.67214 -3.33109 0
      vertex 4.45327 -4.19862 0
    endloop
  endfacet
  facet normal 0 0 -1
    outer loop
      vertex 2.90717 -3.97597 0
      vertex 4.45327 -4.19862 0
      vertex 3.71012 -4.86775 0
    endloop
  endfacet
  facet normal 0 0 -1
    outer loop
      vertex 2.99579 -3.89618 0
      vertex 4.45327 -4.19862 0
      vertex 2.90717 -3.97597 0
    endloop
  endfacet
  facet normal 0 0 -1
    outer loop
      vertex -0.140363 -6.11885 0
      vertex -1.00945 -4.82089 0
      vertex -0.778286 -4.84519 0
    endloop
  endfacet
  facet normal 0 0 -1
    outer loop
      vertex 1.03866 -4.81469 0
      vertex 2.36053 -5.64694 0
      vertex 1.40948 -5.95595 0
    endloop
  endfacet
  facet normal 0 0 -1
    outer loop
      vertex 1.03866 -4.81469 0
      vertex 2.00646 -4.55723 0
      vertex 2.36053 -5.64694 0
    endloop
  endfacet
  facet normal 0 0 -1
    outer loop
      vertex 1.20759 -4.7598 0
      vertex 2.00646 -4.55723 0
      vertex 1.03866 -4.81469 0
    endloop
  endfacet
  facet normal 0 0 -1
    outer loop
      vertex 2.4 2.65429 0
      vertex 4.90054 -0.5 0
      vertex 4.69323 -1.54224 0
    endloop
  endfacet
  facet normal 0 0 -1
    outer loop
      vertex -1.85 -3.20429 0
      vertex 2.00646 -4.55723 0
      vertex 1.20759 -4.7598 0
    endloop
  endfacet
  facet normal 0 0 -1
    outer loop
      vertex -0.140363 -6.11885 0
      vertex -0.778286 -4.84519 0
      vertex -0.0223008 -4.99556 0
    endloop
  endfacet
  facet normal 0 0 -1
    outer loop
      vertex 0 -3.7 0
      vertex 2.00646 -4.55723 0
      vertex -1.85 -3.20429 0
    endloop
  endfacet
  facet normal 0 0 -1
    outer loop
      vertex -4.07953 -2.72139 0
      vertex -0.778286 -4.84519 0
      vertex -3.69242 -3.30074 0
    endloop
  endfacet
  facet normal 0 0 -1
    outer loop
      vertex -1.00945 -4.82089 0
      vertex -0.140363 -6.11885 0
      vertex -1.13488 -6.01432 0
    endloop
  endfacet
  facet normal 0 0 -1
    outer loop
      vertex -4.25808 -2.47564 0
      vertex -4.64111 -3.99 0
      vertex -5.2289 -3.18098 0
    endloop
  endfacet
  facet normal 0 0 -1
    outer loop
      vertex -3.69242 -3.30074 0
      vertex -1.91342 -4.6194 0
      vertex -2.0406 -4.53442 0
    endloop
  endfacet
  facet normal 0 0 -1
    outer loop
      vertex -2.61699 -5.53275 0
      vertex -2.88301 -3.99352 0
      vertex -2.0406 -4.53442 0
    endloop
  endfacet
  facet normal 0 0 -1
    outer loop
      vertex -1.91342 -4.6194 0
      vertex -3.69242 -3.30074 0
      vertex -0.778286 -4.84519 0
    endloop
  endfacet
  facet normal 0 0 -1
    outer loop
      vertex -2.88301 -3.99352 0
      vertex -2.61699 -5.53275 0
      vertex -3.48301 -5.03275 0
    endloop
  endfacet
  facet normal 0 0 -1
    outer loop
      vertex -3.69242 -3.30074 0
      vertex -2.64091 -4.1333 0
      vertex -3.53553 -3.53553 0
    endloop
  endfacet
  facet normal 0 0 -1
    outer loop
      vertex -2.64091 -4.1333 0
      vertex -2.0406 -4.53442 0
      vertex -2.88301 -3.99352 0
    endloop
  endfacet
  facet normal 0 0 -1
    outer loop
      vertex -3.69242 -3.30074 0
      vertex -2.0406 -4.53442 0
      vertex -2.64091 -4.1333 0
    endloop
  endfacet
  facet normal 0 0 -1
    outer loop
      vertex -4.25808 -2.47564 0
      vertex -3.69242 -3.30074 0
      vertex -4.64111 -3.99 0
    endloop
  endfacet
  facet normal 0 0 -1
    outer loop
      vertex -4.07953 -2.72139 0
      vertex -0.0223008 -4.99556 0
      vertex -0.778286 -4.84519 0
    endloop
  endfacet
  facet normal 0 0 -1
    outer loop
      vertex -4.25808 -2.47564 0
      vertex -4.07953 -2.72139 0
      vertex -3.69242 -3.30074 0
    endloop
  endfacet
  facet normal 0 0 -1
    outer loop
      vertex 1.85 -3.20429 0
      vertex 2.00646 -4.55723 0
      vertex 0 -3.7 0
    endloop
  endfacet
  facet normal 0 0 -1
    outer loop
      vertex -4.07953 -2.72139 0
      vertex 0 -5 0
      vertex -0.0223008 -4.99556 0
    endloop
  endfacet
  facet normal 0 0 -1
    outer loop
      vertex 1.85 -3.20429 0
      vertex 2.99579 -3.89618 0
      vertex 2.00646 -4.55723 0
    endloop
  endfacet
  facet normal 0 0 -1
    outer loop
      vertex -1.85 -3.20429 0
      vertex -4.6194 -1.91342 0
      vertex -2.4 -2.65429 0
    endloop
  endfacet
  facet normal 0 0 -1
    outer loop
      vertex -2.4 2.65429 0
      vertex -0.778286 4.84519 0
      vertex -1.85 3.20429 0
    endloop
  endfacet
  facet normal 0 0 -1
    outer loop
      vertex -4.86196 -0.69398 0
      vertex -1.91342 4.6194 0
      vertex -2.4 2.65429 0
    endloop
  endfacet
  facet normal 0 0 -1
    outer loop
      vertex -2.4 -2.65429 0
      vertex -4.6194 -1.91342 0
      vertex -4.69962 -1.51011 0
    endloop
  endfacet
  facet normal 0 0 -1
    outer loop
      vertex 1.85 3.20429 0
      vertex 2.99579 3.89618 0
      vertex 4.45327 4.19862 0
    endloop
  endfacet
  facet normal 0 0 -1
    outer loop
      vertex 2.4 2.65429 0
      vertex 4.29696 -2.39598 0
      vertex 2.4 -2.65429 0
    endloop
  endfacet
  facet normal 0 0 -1
    outer loop
      vertex 2.4 2.65429 0
      vertex 4.69323 -1.54224 0
      vertex 4.29696 -2.39598 0
    endloop
  endfacet
  facet normal 0 0 -1
    outer loop
      vertex 4.90054 0.5 0
      vertex 6.1 -1.49407e-15 0
      vertex 4.90054 -0.5 0
    endloop
  endfacet
  facet normal 0 0 -1
    outer loop
      vertex 2.4 2.65429 0
      vertex 4.69323 1.54224 0
      vertex 4.90054 0.5 0
    endloop
  endfacet
  facet normal 0 0 -1
    outer loop
      vertex 2.4 2.65429 0
      vertex 4.90054 0.5 0
      vertex 4.90054 -0.5 0
    endloop
  endfacet
  facet normal 0 0 -1
    outer loop
      vertex -0.778286 4.84519 0
      vertex -0.0223008 4.99556 0
      vertex -1.85 3.20429 0
    endloop
  endfacet
  facet normal 0 0 -1
    outer loop
      vertex -4.69962 -1.51011 0
      vertex -5.86274 -1.75734 0
      vertex -4.86196 -0.69398 0
    endloop
  endfacet
  facet normal 0 0 -1
    outer loop
      vertex -6.07066 0.779188 0
      vertex -4.86196 0.69398 0
      vertex -4.89688 0.529693 0
    endloop
  endfacet
  facet normal 0 0 -1
    outer loop
      vertex 3.67214 -3.33109 0
      vertex 2.4 -2.65429 0
      vertex 4.29696 -2.39598 0
    endloop
  endfacet
  facet normal 0 0 -1
    outer loop
      vertex -4.6194 -1.91342 0
      vertex -1.85 -3.20429 0
      vertex 1.20759 -4.7598 0
    endloop
  endfacet
  facet normal 0 0 -1
    outer loop
      vertex -4.6194 -1.91342 0
      vertex 1.20759 -4.7598 0
      vertex 0 -5 0
    endloop
  endfacet
  facet normal 0 0 -1
    outer loop
      vertex -4.6194 -1.91342 0
      vertex 0 -5 0
      vertex -4.07953 -2.72139 0
    endloop
  endfacet
  facet normal 0 0 -1
    outer loop
      vertex 1.85 3.20429 0
      vertex 4.45327 4.19862 0
      vertex 2.4 2.65429 0
    endloop
  endfacet
  facet normal 0 0 -1
    outer loop
      vertex 2.4 2.65429 0
      vertex 3.67214 3.33109 0
      vertex 4.29696 2.39598 0
    endloop
  endfacet
  facet normal 0 0 -1
    outer loop
      vertex 0 3.7 0
      vertex 2.00646 4.55723 0
      vertex 1.85 3.20429 0
    endloop
  endfacet
  facet normal 0 0 -1
    outer loop
      vertex 4.90054 0.5 0
      vertex 6.1 0.5 0
      vertex 6.1 -1.49407e-15 0
    endloop
  endfacet
  facet normal 0 0 -1
    outer loop
      vertex 4.69323 -1.54224 0
      vertex 5.776 -2.02432 0
      vertex 4.29696 -2.39598 0
    endloop
  endfacet
  facet normal 0 0 -1
    outer loop
      vertex 2.4 -2.65429 0
      vertex 3.67214 -3.33109 0
      vertex 1.85 -3.20429 0
    endloop
  endfacet
  facet normal 0 0 -1
    outer loop
      vertex 1.85 -3.20429 0
      vertex 4.45327 -4.19862 0
      vertex 2.99579 -3.89618 0
    endloop
  endfacet
  facet normal 0 0 -1
    outer loop
      vertex 2.4 2.65429 0
      vertex 4.29696 2.39598 0
      vertex 5.776 2.02432 0
    endloop
  endfacet
  facet normal -0.207912 0.978148 0
    outer loop
      vertex -6.07066 -0.779188 0
      vertex -6.07066 -0.779188 10
      vertex -4.89688 -0.529693 0
    endloop
  endfacet
  facet normal -0.207912 0.978148 0
    outer loop
      vertex -4.89688 -0.529693 0
      vertex -6.07066 -0.779188 10
      vertex -4.89688 -0.529693 10
    endloop
  endfacet
  facet normal 0 0 1
    outer loop
      vertex -4.89688 -0.529693 10
      vertex -6.07066 -0.779188 10
      vertex -5.86274 -1.75734 10
    endloop
  endfacet
  facet normal 0 0 1
    outer loop
      vertex -4.86196 -0.69398 10
      vertex -4.89688 -0.529693 10
      vertex -4.69962 -1.51011 10
    endloop
  endfacet
  facet normal 0 0 1
    outer loop
      vertex -4.69962 -1.51011 10
      vertex -4.89688 -0.529693 10
      vertex -5.86274 -1.75734 10
    endloop
  endfacet
  facet normal 0 0 1
    outer loop
      vertex -4.07953 -2.72139 10
      vertex -4.69962 -1.51011 10
      vertex -4.6194 -1.91342 10
    endloop
  endfacet
  facet normal 0 0 1
    outer loop
      vertex -2.88301 -3.99352 10
      vertex -3.48301 -5.03275 10
      vertex -2.64091 -4.1333 10
    endloop
  endfacet
  facet normal 0 0 1
    outer loop
      vertex -4.64111 -3.99 10
      vertex -4.07953 -2.72139 10
      vertex -5.2289 -3.18098 10
    endloop
  endfacet
  facet normal 0 0 1
    outer loop
      vertex -3.69242 -3.30074 10
      vertex -4.07953 -2.72139 10
      vertex -4.64111 -3.99 10
    endloop
  endfacet
  facet normal 0 0 1
    outer loop
      vertex 4.90054 0.5 10
      vertex 1 0 10
      vertex 6.1 0.5 10
    endloop
  endfacet
  facet normal 0 0 1
    outer loop
      vertex 1 0 10
      vertex 4.90054 -0.5 10
      vertex 6.1 -1.49407e-15 10
    endloop
  endfacet
  facet normal 0 0 1
    outer loop
      vertex -1.00945 -4.82089 10
      vertex -1.13488 -6.01432 10
      vertex -0.778286 -4.84519 10
    endloop
  endfacet
  facet normal 0 0 1
    outer loop
      vertex -2.61699 -5.53275 10
      vertex -2.64091 -4.1333 10
      vertex -3.48301 -5.03275 10
    endloop
  endfacet
  facet normal 0 0 1
    outer loop
      vertex -2.0406 -4.53442 10
      vertex -2.64091 -4.1333 10
      vertex -2.61699 -5.53275 10
    endloop
  endfacet
  facet normal 0 0 1
    outer loop
      vertex -0.809017 -0.587785 10
      vertex -0.809017 0.587785 10
      vertex -5 0 10
    endloop
  endfacet
  facet normal 0 0 1
    outer loop
      vertex 1.03866 -4.81469 10
      vertex 1.40948 -5.95595 10
      vertex 1.20759 -4.7598 10
    endloop
  endfacet
  facet normal 0 0 1
    outer loop
      vertex -0.140363 -6.11885 10
      vertex -0.778286 -4.84519 10
      vertex -1.13488 -6.01432 10
    endloop
  endfacet
  facet normal 0 0 1
    outer loop
      vertex -0.0223008 -4.99556 10
      vertex -0.778286 -4.84519 10
      vertex -0.140363 -6.11885 10
    endloop
  endfacet
  facet normal 0 0 1
    outer loop
      vertex 2.90717 -3.97597 10
      vertex 3.71012 -4.86775 10
      vertex 2.99579 -3.89618 10
    endloop
  endfacet
  facet normal 0 0 1
    outer loop
      vertex 2.36053 -5.64694 10
      vertex 1.20759 -4.7598 10
      vertex 1.40948 -5.95595 10
    endloop
  endfacet
  facet normal 0 0 1
    outer loop
      vertex 2.00646 -4.55723 10
      vertex 1.20759 -4.7598 10
      vertex 2.36053 -5.64694 10
    endloop
  endfacet
  facet normal 0 0 1
    outer loop
      vertex 4.273 -2.44978 10
      vertex 5.36926 -2.93787 10
      vertex 4.29696 -2.39598 10
    endloop
  endfacet
  facet normal 0 0 1
    outer loop
      vertex 4.45327 -4.19862 10
      vertex 2.99579 -3.89618 10
      vertex 3.71012 -4.86775 10
    endloop
  endfacet
  facet normal 0 0 1
    outer loop
      vertex 5.776 -2.02432 10
      vertex 4.29696 -2.39598 10
      vertex 5.36926 -2.93787 10
    endloop
  endfacet
  facet normal 0 0 1
    outer loop
      vertex 6.1 -1.49407e-15 10
      vertex 4.90054 -0.5 10
      vertex 6.1 -0.5 10
    endloop
  endfacet
  facet normal 0 0 1
    outer loop
      vertex 5.36926 2.93787 10
      vertex 4.273 2.44978 10
      vertex 5.776 2.02432 10
    endloop
  endfacet
  facet normal 0 0 1
    outer loop
      vertex 4.273 2.44978 10
      vertex 4.29696 2.39598 10
      vertex 5.776 2.02432 10
    endloop
  endfacet
  facet normal 0 0 1
    outer loop
      vertex 3.71012 4.86775 10
      vertex 2.90717 3.97597 10
      vertex 4.45327 4.19862 10
    endloop
  endfacet
  facet normal 0 0 1
    outer loop
      vertex 1.03866 4.81469 10
      vertex 1.20759 4.7598 10
      vertex 2.36053 5.64694 10
    endloop
  endfacet
  facet normal 0 0 1
    outer loop
      vertex 2.90717 3.97597 10
      vertex 2.99579 3.89618 10
      vertex 4.45327 4.19862 10
    endloop
  endfacet
  facet normal 0 0 1
    outer loop
      vertex 1.40948 5.95595 10
      vertex 1.03866 4.81469 10
      vertex 2.36053 5.64694 10
    endloop
  endfacet
  facet normal 0 0 1
    outer loop
      vertex -4.86196 0.69398 10
      vertex 0 5 10
      vertex -0.0223008 4.99556 10
    endloop
  endfacet
  facet normal 0 0 1
    outer loop
      vertex 2.36053 5.64694 10
      vertex 1.20759 4.7598 10
      vertex 2.00646 4.55723 10
    endloop
  endfacet
  facet normal 0 0 1
    outer loop
      vertex -5 0 10
      vertex 2.99579 3.89618 10
      vertex 2.00646 4.55723 10
    endloop
  endfacet
  facet normal 0 0 1
    outer loop
      vertex -5 0 10
      vertex 4.45327 4.19862 10
      vertex 2.99579 3.89618 10
    endloop
  endfacet
  facet normal 0 0 1
    outer loop
      vertex -5 0 10
      vertex 4.29696 2.39598 10
      vertex 3.67214 3.33109 10
    endloop
  endfacet
  facet normal 0 0 1
    outer loop
      vertex -5.2289 3.18098 10
      vertex -4.25808 2.47564 10
      vertex -4.64111 3.99 10
    endloop
  endfacet
  facet normal 0 0 1
    outer loop
      vertex -0.140363 6.11885 10
      vertex -1.00945 4.82089 10
      vertex -0.0223008 4.99556 10
    endloop
  endfacet
  facet normal 0 0 1
    outer loop
      vertex -2.0406 4.53442 10
      vertex -2.88301 3.99352 10
      vertex -2.64091 4.1333 10
    endloop
  endfacet
  facet normal 0 0 1
    outer loop
      vertex -1.00945 4.82089 10
      vertex -0.778286 4.84519 10
      vertex -0.0223008 4.99556 10
    endloop
  endfacet
  facet normal 0 0 1
    outer loop
      vertex -2.0406 4.53442 10
      vertex -2.61699 5.53275 10
      vertex -2.88301 3.99352 10
    endloop
  endfacet
  facet normal 0 0 1
    outer loop
      vertex -4.86196 0.69398 10
      vertex -0.0223008 4.99556 10
      vertex -0.778286 4.84519 10
    endloop
  endfacet
  facet normal 0 0 1
    outer loop
      vertex -4.6194 1.91342 10
      vertex -4.69962 1.51011 10
      vertex -4.07953 2.72139 10
    endloop
  endfacet
  facet normal 0 0 1
    outer loop
      vertex -3.69242 3.30074 10
      vertex -4.64111 3.99 10
      vertex -4.25808 2.47564 10
    endloop
  endfacet
  facet normal 0 0 1
    outer loop
      vertex -6.07066 0.779188 10
      vertex -4.69962 1.51011 10
      vertex -5.86274 1.75734 10
    endloop
  endfacet
  facet normal 0 0 1
    outer loop
      vertex -4.69962 1.51011 10
      vertex -4.86196 0.69398 10
      vertex -1.91342 4.6194 10
    endloop
  endfacet
  facet normal 0 0 1
    outer loop
      vertex -4.69962 1.51011 10
      vertex -2.0406 4.53442 10
      vertex -2.64091 4.1333 10
    endloop
  endfacet
  facet normal 0 0 1
    outer loop
      vertex -4.69962 1.51011 10
      vertex -1.91342 4.6194 10
      vertex -2.0406 4.53442 10
    endloop
  endfacet
  facet normal 0 0 1
    outer loop
      vertex -4.86196 0.69398 10
      vertex 1.20759 4.7598 10
      vertex 0 5 10
    endloop
  endfacet
  facet normal 0 0 1
    outer loop
      vertex -4.86196 0.69398 10
      vertex -5 0 10
      vertex 1.20759 4.7598 10
    endloop
  endfacet
  facet normal 0 0 1
    outer loop
      vertex -4.07953 2.72139 10
      vertex -4.69962 1.51011 10
      vertex -3.69242 3.30074 10
    endloop
  endfacet
  facet normal 0 0 1
    outer loop
      vertex -2.64091 4.1333 10
      vertex -3.53553 3.53553 10
      vertex -4.69962 1.51011 10
    endloop
  endfacet
  facet normal 0 0 1
    outer loop
      vertex -4.25808 2.47564 10
      vertex -4.07953 2.72139 10
      vertex -3.69242 3.30074 10
    endloop
  endfacet
  facet normal 0 0 1
    outer loop
      vertex -3.69242 3.30074 10
      vertex -4.69962 1.51011 10
      vertex -3.53553 3.53553 10
    endloop
  endfacet
  facet normal 0 0 1
    outer loop
      vertex -6.07066 0.779188 10
      vertex -4.86196 0.69398 10
      vertex -4.69962 1.51011 10
    endloop
  endfacet
  facet normal 0 0 1
    outer loop
      vertex -5 0 10
      vertex -0.809017 0.587785 10
      vertex 4.29696 2.39598 10
    endloop
  endfacet
  facet normal 0 0 1
    outer loop
      vertex -5 0 10
      vertex 3.67214 3.33109 10
      vertex 4.45327 4.19862 10
    endloop
  endfacet
  facet normal 0 0 1
    outer loop
      vertex -0.778286 4.84519 10
      vertex -1.91342 4.6194 10
      vertex -4.86196 0.69398 10
    endloop
  endfacet
  facet normal 0 0 1
    outer loop
      vertex 1.20759 4.7598 10
      vertex -5 0 10
      vertex 2.00646 4.55723 10
    endloop
  endfacet
  facet normal 0 0 1
    outer loop
      vertex -4.07953 -2.72139 10
      vertex -4.86196 -0.69398 10
      vertex -4.69962 -1.51011 10
    endloop
  endfacet
  facet normal 0 0 1
    outer loop
      vertex 4.29696 2.39598 10
      vertex 0.309017 0.951057 10
      vertex 5.776 2.02432 10
    endloop
  endfacet
  facet normal 0 0 1
    outer loop
      vertex 4.29696 2.39598 10
      vertex -0.809017 0.587785 10
      vertex 0.309017 0.951057 10
    endloop
  endfacet
  facet normal 0 0 1
    outer loop
      vertex 6.1 0.5 10
      vertex 1 0 10
      vertex 6.1 -1.49407e-15 10
    endloop
  endfacet
  facet normal 0 0 1
    outer loop
      vertex -4.25808 -2.47564 10
      vertex -5.2289 -3.18098 10
      vertex -4.07953 -2.72139 10
    endloop
  endfacet
  facet normal 0 0 1
    outer loop
      vertex -1.13488 6.01432 10
      vertex -1.00945 4.82089 10
      vertex -0.140363 6.11885 10
    endloop
  endfacet
  facet normal 0 0 1
    outer loop
      vertex -3.48301 5.03275 10
      vertex -2.88301 3.99352 10
      vertex -2.61699 5.53275 10
    endloop
  endfacet
  facet normal 0 0 1
    outer loop
      vertex -6.07066 0.779188 10
      vertex -4.89688 0.529693 10
      vertex -4.86196 0.69398 10
    endloop
  endfacet
  facet normal 0 0 1
    outer loop
      vertex 1 0 10
      vertex 0.309017 -0.951057 10
      vertex 4.69323 -1.54224 10
    endloop
  endfacet
  facet normal 0 0 1
    outer loop
      vertex 1 0 10
      vertex 4.69323 -1.54224 10
      vertex 4.90054 -0.5 10
    endloop
  endfacet
  facet normal 0 0 1
    outer loop
      vertex 0.309017 0.951057 10
      vertex 4.69323 1.54224 10
      vertex 5.776 2.02432 10
    endloop
  endfacet
  facet normal 0 0 1
    outer loop
      vertex 0.309017 0.951057 10
      vertex 4.90054 0.5 10
      vertex 4.69323 1.54224 10
    endloop
  endfacet
  facet normal 0 0 1
    outer loop
      vertex 0.309017 0.951057 10
      vertex 1 0 10
      vertex 4.90054 0.5 10
    endloop
  endfacet
  facet normal 0 0 1
    outer loop
      vertex -5 0 10
      vertex 0.309017 -0.951057 10
      vertex -0.809017 -0.587785 10
    endloop
  endfacet
  facet normal 0 0 1
    outer loop
      vertex 0.309017 -0.951057 10
      vertex 5.776 -2.02432 10
      vertex 4.69323 -1.54224 10
    endloop
  endfacet
  facet normal 0 0 1
    outer loop
      vertex -5 0 10
      vertex 5.776 -2.02432 10
      vertex 0.309017 -0.951057 10
    endloop
  endfacet
  facet normal 0 0 1
    outer loop
      vertex -5 0 10
      vertex 4.29696 -2.39598 10
      vertex 5.776 -2.02432 10
    endloop
  endfacet
  facet normal 0 0 1
    outer loop
      vertex -5 0 10
      vertex 3.67214 -3.33109 10
      vertex 4.29696 -2.39598 10
    endloop
  endfacet
  facet normal 0 0 1
    outer loop
      vertex -5 0 10
      vertex 4.45327 -4.19862 10
      vertex 3.67214 -3.33109 10
    endloop
  endfacet
  facet normal 0 0 1
    outer loop
      vertex -5 0 10
      vertex 2.99579 -3.89618 10
      vertex 4.45327 -4.19862 10
    endloop
  endfacet
  facet normal 0 0 1
    outer loop
      vertex -5 0 10
      vertex 2.00646 -4.55723 10
      vertex 2.99579 -3.89618 10
    endloop
  endfacet
  facet normal 0 0 1
    outer loop
      vertex -5 0 10
      vertex 1.20759 -4.7598 10
      vertex 2.00646 -4.55723 10
    endloop
  endfacet
  facet normal 0 0 1
    outer loop
      vertex -5 0 10
      vertex 0 -5 10
      vertex 1.20759 -4.7598 10
    endloop
  endfacet
  facet normal 0 0 1
    outer loop
      vertex -5 0 10
      vertex -0.0223008 -4.99556 10
      vertex 0 -5 10
    endloop
  endfacet
  facet normal 0 0 1
    outer loop
      vertex -5 0 10
      vertex -0.778286 -4.84519 10
      vertex -0.0223008 -4.99556 10
    endloop
  endfacet
  facet normal 0 0 1
    outer loop
      vertex -5 0 10
      vertex -1.91342 -4.6194 10
      vertex -0.778286 -4.84519 10
    endloop
  endfacet
  facet normal 0 0 1
    outer loop
      vertex -5 0 10
      vertex -2.0406 -4.53442 10
      vertex -1.91342 -4.6194 10
    endloop
  endfacet
  facet normal 0 0 1
    outer loop
      vertex -5 0 10
      vertex -2.64091 -4.1333 10
      vertex -2.0406 -4.53442 10
    endloop
  endfacet
  facet normal 0 0 1
    outer loop
      vertex -5 0 10
      vertex -3.53553 -3.53553 10
      vertex -2.64091 -4.1333 10
    endloop
  endfacet
  facet normal 0 0 1
    outer loop
      vertex -5 0 10
      vertex -3.69242 -3.30074 10
      vertex -3.53553 -3.53553 10
    endloop
  endfacet
  facet normal 0 0 1
    outer loop
      vertex -5 0 10
      vertex -4.07953 -2.72139 10
      vertex -3.69242 -3.30074 10
    endloop
  endfacet
  facet normal 0 0 1
    outer loop
      vertex -5 0 10
      vertex -4.86196 -0.69398 10
      vertex -4.07953 -2.72139 10
    endloop
  endfacet
  facet normal 0.207912 -0.978148 0
    outer loop
      vertex -5.86274 -1.75734 10
      vertex -5.86274 -1.75734 0
      vertex -4.69962 -1.51011 0
    endloop
  endfacet
  facet normal 0.207912 -0.978148 0
    outer loop
      vertex -4.69962 -1.51011 10
      vertex -5.86274 -1.75734 10
      vertex -4.69962 -1.51011 0
    endloop
  endfacet
  facet normal -0.980785 -0.19509 0
    outer loop
      vertex -4.69962 -1.51011 0
      vertex -4.6194 -1.91342 0
      vertex -4.69962 -1.51011 10
    endloop
  endfacet
  facet normal -0.980785 -0.19509 0
    outer loop
      vertex -4.69962 -1.51011 10
      vertex -4.6194 -1.91342 0
      vertex -4.6194 -1.91342 10
    endloop
  endfacet
  facet normal -0.83147 -0.55557 0
    outer loop
      vertex -4.6194 -1.91342 0
      vertex -4.07953 -2.72139 0
      vertex -4.6194 -1.91342 10
    endloop
  endfacet
  facet normal -0.83147 -0.55557 0
    outer loop
      vertex -4.6194 -1.91342 10
      vertex -4.07953 -2.72139 0
      vertex -4.07953 -2.72139 10
    endloop
  endfacet
  facet normal 0.809017 0.587785 0
    outer loop
      vertex -4.07953 -2.72139 0
      vertex -4.25808 -2.47564 0
      vertex -4.25808 -2.47564 10
    endloop
  endfacet
  facet normal 0.809017 0.587785 0
    outer loop
      vertex -4.07953 -2.72139 10
      vertex -4.07953 -2.72139 0
      vertex -4.25808 -2.47564 10
    endloop
  endfacet
  facet normal -0.587785 0.809017 0
    outer loop
      vertex -5.2289 -3.18098 0
      vertex -5.2289 -3.18098 10
      vertex -4.25808 -2.47564 0
    endloop
  endfacet
  facet normal -0.587785 0.809017 0
    outer loop
      vertex -4.25808 -2.47564 0
      vertex -5.2289 -3.18098 10
      vertex -4.25808 -2.47564 10
    endloop
  endfacet
  facet normal -0.809017 -0.587785 0
    outer loop
      vertex -5.2289 -3.18098 0
      vertex -4.64111 -3.99 0
      vertex -5.2289 -3.18098 10
    endloop
  endfacet
  facet normal -0.809017 -0.587785 0
    outer loop
      vertex -5.2289 -3.18098 10
      vertex -4.64111 -3.99 0
      vertex -4.64111 -3.99 10
    endloop
  endfacet
  facet normal 0.587785 -0.809017 0
    outer loop
      vertex -4.64111 -3.99 10
      vertex -4.64111 -3.99 0
      vertex -3.69242 -3.30074 0
    endloop
  endfacet
  facet normal 0.587785 -0.809017 0
    outer loop
      vertex -3.69242 -3.30074 10
      vertex -4.64111 -3.99 10
      vertex -3.69242 -3.30074 0
    endloop
  endfacet
  facet normal -0.83147 -0.55557 0
    outer loop
      vertex -3.69242 -3.30074 0
      vertex -3.53553 -3.53553 0
      vertex -3.69242 -3.30074 10
    endloop
  endfacet
  facet normal -0.83147 -0.55557 0
    outer loop
      vertex -3.69242 -3.30074 10
      vertex -3.53553 -3.53553 0
      vertex -3.53553 -3.53553 10
    endloop
  endfacet
  facet normal -0.55557 -0.83147 0
    outer loop
      vertex -3.53553 -3.53553 10
      vertex -3.53553 -3.53553 0
      vertex -2.64091 -4.1333 0
    endloop
  endfacet
  facet normal -0.55557 -0.83147 0
    outer loop
      vertex -2.64091 -4.1333 10
      vertex -3.53553 -3.53553 10
      vertex -2.64091 -4.1333 0
    endloop
  endfacet
  facet normal 0.5 0.866025 0
    outer loop
      vertex -2.88301 -3.99352 0
      vertex -2.88301 -3.99352 10
      vertex -2.64091 -4.1333 0
    endloop
  endfacet
  facet normal 0.5 0.866025 0
    outer loop
      vertex -2.64091 -4.1333 0
      vertex -2.88301 -3.99352 10
      vertex -2.64091 -4.1333 10
    endloop
  endfacet
  facet normal -0.866025 0.5 0
    outer loop
      vertex -3.48301 -5.03275 0
      vertex -3.48301 -5.03275 10
      vertex -2.88301 -3.99352 0
    endloop
  endfacet
  facet normal -0.866025 0.5 0
    outer loop
      vertex -2.88301 -3.99352 0
      vertex -3.48301 -5.03275 10
      vertex -2.88301 -3.99352 10
    endloop
  endfacet
  facet normal -0.5 -0.866025 0
    outer loop
      vertex -3.48301 -5.03275 10
      vertex -3.48301 -5.03275 0
      vertex -2.61699 -5.53275 0
    endloop
  endfacet
  facet normal -0.5 -0.866025 0
    outer loop
      vertex -2.61699 -5.53275 10
      vertex -3.48301 -5.03275 10
      vertex -2.61699 -5.53275 0
    endloop
  endfacet
  facet normal 0.866025 -0.5 0
    outer loop
      vertex -2.61699 -5.53275 10
      vertex -2.61699 -5.53275 0
      vertex -2.0406 -4.53442 0
    endloop
  endfacet
  facet normal 0.866025 -0.5 0
    outer loop
      vertex -2.0406 -4.53442 10
      vertex -2.61699 -5.53275 10
      vertex -2.0406 -4.53442 0
    endloop
  endfacet
  facet normal -0.55557 -0.83147 0
    outer loop
      vertex -2.0406 -4.53442 10
      vertex -2.0406 -4.53442 0
      vertex -1.91342 -4.6194 0
    endloop
  endfacet
  facet normal -0.55557 -0.83147 0
    outer loop
      vertex -1.91342 -4.6194 10
      vertex -2.0406 -4.53442 10
      vertex -1.91342 -4.6194 0
    endloop
  endfacet
  facet normal -0.19509 -0.980785 0
    outer loop
      vertex -1.91342 -4.6194 10
      vertex -1.91342 -4.6194 0
      vertex -0.778286 -4.84519 0
    endloop
  endfacet
  facet normal -0.19509 -0.980785 0
    outer loop
      vertex -0.778286 -4.84519 10
      vertex -1.91342 -4.6194 10
      vertex -0.778286 -4.84519 0
    endloop
  endfacet
  facet normal 0.104528 0.994522 0
    outer loop
      vertex -1.00945 -4.82089 0
      vertex -1.00945 -4.82089 10
      vertex -0.778286 -4.84519 0
    endloop
  endfacet
  facet normal 0.104528 0.994522 0
    outer loop
      vertex -0.778286 -4.84519 0
      vertex -1.00945 -4.82089 10
      vertex -0.778286 -4.84519 10
    endloop
  endfacet
  facet normal -0.994522 0.104528 0
    outer loop
      vertex -1.13488 -6.01432 0
      vertex -1.13488 -6.01432 10
      vertex -1.00945 -4.82089 0
    endloop
  endfacet
  facet normal -0.994522 0.104528 0
    outer loop
      vertex -1.00945 -4.82089 0
      vertex -1.13488 -6.01432 10
      vertex -1.00945 -4.82089 10
    endloop
  endfacet
  facet normal -0.104528 -0.994522 0
    outer loop
      vertex -1.13488 -6.01432 10
      vertex -1.13488 -6.01432 0
      vertex -0.140363 -6.11885 0
    endloop
  endfacet
  facet normal -0.104528 -0.994522 0
    outer loop
      vertex -0.140363 -6.11885 10
      vertex -1.13488 -6.01432 10
      vertex -0.140363 -6.11885 0
    endloop
  endfacet
  facet normal 0.994522 -0.104528 0
    outer loop
      vertex -0.140363 -6.11885 10
      vertex -0.140363 -6.11885 0
      vertex -0.0223008 -4.99556 0
    endloop
  endfacet
  facet normal 0.994522 -0.104528 0
    outer loop
      vertex -0.0223008 -4.99556 10
      vertex -0.140363 -6.11885 10
      vertex -0.0223008 -4.99556 0
    endloop
  endfacet
  facet normal -0.19509 -0.980785 0
    outer loop
      vertex -0.0223008 -4.99556 10
      vertex -0.0223008 -4.99556 0
      vertex 0 -5 0
    endloop
  endfacet
  facet normal -0.19509 -0.980785 0
    outer loop
      vertex 0 -5 10
      vertex -0.0223008 -4.99556 10
      vertex 0 -5 0
    endloop
  endfacet
  facet normal 0.19509 -0.980785 0
    outer loop
      vertex 0 -5 10
      vertex 0 -5 0
      vertex 1.20759 -4.7598 0
    endloop
  endfacet
  facet normal 0.19509 -0.980785 0
    outer loop
      vertex 1.20759 -4.7598 10
      vertex 0 -5 10
      vertex 1.20759 -4.7598 0
    endloop
  endfacet
  facet normal -0.309017 0.951057 0
    outer loop
      vertex 1.03866 -4.81469 0
      vertex 1.03866 -4.81469 10
      vertex 1.20759 -4.7598 0
    endloop
  endfacet
  facet normal -0.309017 0.951057 0
    outer loop
      vertex 1.20759 -4.7598 0
      vertex 1.03866 -4.81469 10
      vertex 1.20759 -4.7598 10
    endloop
  endfacet
  facet normal -0.951057 -0.309017 0
    outer loop
      vertex 1.03866 -4.81469 0
      vertex 1.40948 -5.95595 0
      vertex 1.03866 -4.81469 10
    endloop
  endfacet
  facet normal -0.951057 -0.309017 0
    outer loop
      vertex 1.03866 -4.81469 10
      vertex 1.40948 -5.95595 0
      vertex 1.40948 -5.95595 10
    endloop
  endfacet
  facet normal 0.309017 -0.951057 0
    outer loop
      vertex 1.40948 -5.95595 10
      vertex 1.40948 -5.95595 0
      vertex 2.36053 -5.64694 0
    endloop
  endfacet
  facet normal 0.309017 -0.951057 0
    outer loop
      vertex 2.36053 -5.64694 10
      vertex 1.40948 -5.95595 10
      vertex 2.36053 -5.64694 0
    endloop
  endfacet
  facet normal 0.951057 0.309017 0
    outer loop
      vertex 2.36053 -5.64694 0
      vertex 2.00646 -4.55723 0
      vertex 2.00646 -4.55723 10
    endloop
  endfacet
  facet normal 0.951057 0.309017 0
    outer loop
      vertex 2.36053 -5.64694 10
      vertex 2.36053 -5.64694 0
      vertex 2.00646 -4.55723 10
    endloop
  endfacet
  facet normal 0.55557 -0.83147 0
    outer loop
      vertex 2.00646 -4.55723 10
      vertex 2.00646 -4.55723 0
      vertex 2.99579 -3.89618 0
    endloop
  endfacet
  facet normal 0.55557 -0.83147 0
    outer loop
      vertex 2.99579 -3.89618 10
      vertex 2.00646 -4.55723 10
      vertex 2.99579 -3.89618 0
    endloop
  endfacet
  facet normal -0.669131 0.743145 0
    outer loop
      vertex 2.90717 -3.97597 0
      vertex 2.90717 -3.97597 10
      vertex 2.99579 -3.89618 0
    endloop
  endfacet
  facet normal -0.669131 0.743145 0
    outer loop
      vertex 2.99579 -3.89618 0
      vertex 2.90717 -3.97597 10
      vertex 2.99579 -3.89618 10
    endloop
  endfacet
  facet normal -0.743145 -0.669131 0
    outer loop
      vertex 2.90717 -3.97597 0
      vertex 3.71012 -4.86775 0
      vertex 2.90717 -3.97597 10
    endloop
  endfacet
  facet normal -0.743145 -0.669131 0
    outer loop
      vertex 2.90717 -3.97597 10
      vertex 3.71012 -4.86775 0
      vertex 3.71012 -4.86775 10
    endloop
  endfacet
  facet normal 0.669131 -0.743145 0
    outer loop
      vertex 3.71012 -4.86775 10
      vertex 3.71012 -4.86775 0
      vertex 4.45327 -4.19862 0
    endloop
  endfacet
  facet normal 0.669131 -0.743145 0
    outer loop
      vertex 4.45327 -4.19862 10
      vertex 3.71012 -4.86775 10
      vertex 4.45327 -4.19862 0
    endloop
  endfacet
  facet normal 0.743145 0.669131 0
    outer loop
      vertex 4.45327 -4.19862 0
      vertex 3.67214 -3.33109 0
      vertex 3.67214 -3.33109 10
    endloop
  endfacet
  facet normal 0.743145 0.669131 0
    outer loop
      vertex 4.45327 -4.19862 10
      vertex 4.45327 -4.19862 0
      vertex 3.67214 -3.33109 10
    endloop
  endfacet
  facet normal 0.83147 -0.55557 0
    outer loop
      vertex 3.67214 -3.33109 10
      vertex 3.67214 -3.33109 0
      vertex 4.29696 -2.39598 0
    endloop
  endfacet
  facet normal 0.83147 -0.55557 0
    outer loop
      vertex 4.29696 -2.39598 10
      vertex 3.67214 -3.33109 10
      vertex 4.29696 -2.39598 0
    endloop
  endfacet
  facet normal -0.913545 0.406737 0
    outer loop
      vertex 4.273 -2.44978 0
      vertex 4.273 -2.44978 10
      vertex 4.29696 -2.39598 0
    endloop
  endfacet
  facet normal -0.913545 0.406737 0
    outer loop
      vertex 4.29696 -2.39598 0
      vertex 4.273 -2.44978 10
      vertex 4.29696 -2.39598 10
    endloop
  endfacet
  facet normal -0.406737 -0.913545 0
    outer loop
      vertex 4.273 -2.44978 10
      vertex 4.273 -2.44978 0
      vertex 5.36926 -2.93787 0
    endloop
  endfacet
  facet normal -0.406737 -0.913545 0
    outer loop
      vertex 5.36926 -2.93787 10
      vertex 4.273 -2.44978 10
      vertex 5.36926 -2.93787 0
    endloop
  endfacet
  facet normal 0.913545 -0.406737 0
    outer loop
      vertex 5.36926 -2.93787 10
      vertex 5.36926 -2.93787 0
      vertex 5.776 -2.02432 0
    endloop
  endfacet
  facet normal 0.913545 -0.406737 0
    outer loop
      vertex 5.776 -2.02432 10
      vertex 5.36926 -2.93787 10
      vertex 5.776 -2.02432 0
    endloop
  endfacet
  facet normal 0.406737 0.913545 0
    outer loop
      vertex 4.69323 -1.54224 0
      vertex 4.69323 -1.54224 10
      vertex 5.776 -2.02432 0
    endloop
  endfacet
  facet normal 0.406737 0.913545 0
    outer loop
      vertex 5.776 -2.02432 0
      vertex 4.69323 -1.54224 10
      vertex 5.776 -2.02432 10
    endloop
  endfacet
  facet normal 0.980785 -0.19509 0
    outer loop
      vertex 4.69323 -1.54224 10
      vertex 4.69323 -1.54224 0
      vertex 4.90054 -0.5 0
    endloop
  endfacet
  facet normal 0.980785 -0.19509 0
    outer loop
      vertex 4.90054 -0.5 10
      vertex 4.69323 -1.54224 10
      vertex 4.90054 -0.5 0
    endloop
  endfacet
  facet normal -2.44929e-16 -1 0
    outer loop
      vertex 4.90054 -0.5 10
      vertex 4.90054 -0.5 0
      vertex 6.1 -0.5 0
    endloop
  endfacet
  facet normal -2.44929e-16 -1 0
    outer loop
      vertex 6.1 -0.5 10
      vertex 4.90054 -0.5 10
      vertex 6.1 -0.5 0
    endloop
  endfacet
  facet normal 1 0 0
    outer loop
      vertex 6.1 -0.5 10
      vertex 6.1 -0.5 0
      vertex 6.1 -1.49407e-15 0
    endloop
  endfacet
  facet normal 1 0 0
    outer loop
      vertex 6.1 -1.49407e-15 10
      vertex 6.1 -0.5 10
      vertex 6.1 -1.49407e-15 0
    endloop
  endfacet
  facet normal 1 -2.44929e-16 0
    outer loop
      vertex 6.1 -1.49407e-15 10
      vertex 6.1 -1.49407e-15 0
      vertex 6.1 0.5 0
    endloop
  endfacet
  facet normal 1 -2.44929e-16 0
    outer loop
      vertex 6.1 0.5 10
      vertex 6.1 -1.49407e-15 10
      vertex 6.1 0.5 0
    endloop
  endfacet
  facet normal 0 1 0
    outer loop
      vertex 4.90054 0.5 0
      vertex 4.90054 0.5 10
      vertex 6.1 0.5 0
    endloop
  endfacet
  facet normal 0 1 0
    outer loop
      vertex 6.1 0.5 0
      vertex 4.90054 0.5 10
      vertex 6.1 0.5 10
    endloop
  endfacet
  facet normal 0.980785 0.19509 0
    outer loop
      vertex 4.90054 0.5 0
      vertex 4.69323 1.54224 0
      vertex 4.69323 1.54224 10
    endloop
  endfacet
  facet normal 0.980785 0.19509 0
    outer loop
      vertex 4.90054 0.5 10
      vertex 4.90054 0.5 0
      vertex 4.69323 1.54224 10
    endloop
  endfacet
  facet normal 0.406737 -0.913545 0
    outer loop
      vertex 4.69323 1.54224 10
      vertex 4.69323 1.54224 0
      vertex 5.776 2.02432 0
    endloop
  endfacet
  facet normal 0.406737 -0.913545 0
    outer loop
      vertex 5.776 2.02432 10
      vertex 4.69323 1.54224 10
      vertex 5.776 2.02432 0
    endloop
  endfacet
  facet normal 0.913545 0.406737 0
    outer loop
      vertex 5.776 2.02432 0
      vertex 5.36926 2.93787 0
      vertex 5.36926 2.93787 10
    endloop
  endfacet
  facet normal 0.913545 0.406737 0
    outer loop
      vertex 5.776 2.02432 10
      vertex 5.776 2.02432 0
      vertex 5.36926 2.93787 10
    endloop
  endfacet
  facet normal -0.406737 0.913545 0
    outer loop
      vertex 4.273 2.44978 0
      vertex 4.273 2.44978 10
      vertex 5.36926 2.93787 0
    endloop
  endfacet
  facet normal -0.406737 0.913545 0
    outer loop
      vertex 5.36926 2.93787 0
      vertex 4.273 2.44978 10
      vertex 5.36926 2.93787 10
    endloop
  endfacet
  facet normal -0.913545 -0.406737 0
    outer loop
      vertex 4.273 2.44978 0
      vertex 4.29696 2.39598 0
      vertex 4.273 2.44978 10
    endloop
  endfacet
  facet normal -0.913545 -0.406737 0
    outer loop
      vertex 4.273 2.44978 10
      vertex 4.29696 2.39598 0
      vertex 4.29696 2.39598 10
    endloop
  endfacet
  facet normal 0.83147 0.55557 0
    outer loop
      vertex 4.29696 2.39598 0
      vertex 3.67214 3.33109 0
      vertex 3.67214 3.33109 10
    endloop
  endfacet
  facet normal 0.83147 0.55557 0
    outer loop
      vertex 4.29696 2.39598 10
      vertex 4.29696 2.39598 0
      vertex 3.67214 3.33109 10
    endloop
  endfacet
  facet normal 0.743145 -0.669131 0
    outer loop
      vertex 3.67214 3.33109 10
      vertex 3.67214 3.33109 0
      vertex 4.45327 4.19862 0
    endloop
  endfacet
  facet normal 0.743145 -0.669131 0
    outer loop
      vertex 4.45327 4.19862 10
      vertex 3.67214 3.33109 10
      vertex 4.45327 4.19862 0
    endloop
  endfacet
  facet normal 0.669131 0.743145 0
    outer loop
      vertex 3.71012 4.86775 0
      vertex 3.71012 4.86775 10
      vertex 4.45327 4.19862 0
    endloop
  endfacet
  facet normal 0.669131 0.743145 0
    outer loop
      vertex 4.45327 4.19862 0
      vertex 3.71012 4.86775 10
      vertex 4.45327 4.19862 10
    endloop
  endfacet
  facet normal -0.743145 0.669131 0
    outer loop
      vertex 2.90717 3.97597 0
      vertex 2.90717 3.97597 10
      vertex 3.71012 4.86775 0
    endloop
  endfacet
  facet normal -0.743145 0.669131 0
    outer loop
      vertex 3.71012 4.86775 0
      vertex 2.90717 3.97597 10
      vertex 3.71012 4.86775 10
    endloop
  endfacet
  facet normal -0.669131 -0.743145 0
    outer loop
      vertex 2.90717 3.97597 10
      vertex 2.90717 3.97597 0
      vertex 2.99579 3.89618 0
    endloop
  endfacet
  facet normal -0.669131 -0.743145 0
    outer loop
      vertex 2.99579 3.89618 10
      vertex 2.90717 3.97597 10
      vertex 2.99579 3.89618 0
    endloop
  endfacet
  facet normal 0.55557 0.83147 0
    outer loop
      vertex 2.00646 4.55723 0
      vertex 2.00646 4.55723 10
      vertex 2.99579 3.89618 0
    endloop
  endfacet
  facet normal 0.55557 0.83147 0
    outer loop
      vertex 2.99579 3.89618 0
      vertex 2.00646 4.55723 10
      vertex 2.99579 3.89618 10
    endloop
  endfacet
  facet normal 0.951057 -0.309017 0
    outer loop
      vertex 2.00646 4.55723 10
      vertex 2.00646 4.55723 0
      vertex 2.36053 5.64694 0
    endloop
  endfacet
  facet normal 0.951057 -0.309017 0
    outer loop
      vertex 2.36053 5.64694 10
      vertex 2.00646 4.55723 10
      vertex 2.36053 5.64694 0
    endloop
  endfacet
  facet normal 0.309017 0.951057 0
    outer loop
      vertex 1.40948 5.95595 0
      vertex 1.40948 5.95595 10
      vertex 2.36053 5.64694 0
    endloop
  endfacet
  facet normal 0.309017 0.951057 0
    outer loop
      vertex 2.36053 5.64694 0
      vertex 1.40948 5.95595 10
      vertex 2.36053 5.64694 10
    endloop
  endfacet
  facet normal -0.951057 0.309017 0
    outer loop
      vertex 1.03866 4.81469 0
      vertex 1.03866 4.81469 10
      vertex 1.40948 5.95595 0
    endloop
  endfacet
  facet normal -0.951057 0.309017 0
    outer loop
      vertex 1.40948 5.95595 0
      vertex 1.03866 4.81469 10
      vertex 1.40948 5.95595 10
    endloop
  endfacet
  facet normal -0.309017 -0.951057 0
    outer loop
      vertex 1.03866 4.81469 10
      vertex 1.03866 4.81469 0
      vertex 1.20759 4.7598 0
    endloop
  endfacet
  facet normal -0.309017 -0.951057 0
    outer loop
      vertex 1.20759 4.7598 10
      vertex 1.03866 4.81469 10
      vertex 1.20759 4.7598 0
    endloop
  endfacet
  facet normal 0.19509 0.980785 0
    outer loop
      vertex 0 5 0
      vertex 0 5 10
      vertex 1.20759 4.7598 0
    endloop
  endfacet
  facet normal 0.19509 0.980785 0
    outer loop
      vertex 1.20759 4.7598 0
      vertex 0 5 10
      vertex 1.20759 4.7598 10
    endloop
  endfacet
  facet normal -0.19509 0.980785 0
    outer loop
      vertex -0.0223008 4.99556 0
      vertex -0.0223008 4.99556 10
      vertex 0 5 0
    endloop
  endfacet
  facet normal -0.19509 0.980785 0
    outer loop
      vertex 0 5 0
      vertex -0.0223008 4.99556 10
      vertex 0 5 10
    endloop
  endfacet
  facet normal 0.994522 0.104528 0
    outer loop
      vertex -0.0223008 4.99556 0
      vertex -0.140363 6.11885 0
      vertex -0.140363 6.11885 10
    endloop
  endfacet
  facet normal 0.994522 0.104528 0
    outer loop
      vertex -0.0223008 4.99556 10
      vertex -0.0223008 4.99556 0
      vertex -0.140363 6.11885 10
    endloop
  endfacet
  facet normal -0.104528 0.994522 0
    outer loop
      vertex -1.13488 6.01432 0
      vertex -1.13488 6.01432 10
      vertex -0.140363 6.11885 0
    endloop
  endfacet
  facet normal -0.104528 0.994522 0
    outer loop
      vertex -0.140363 6.11885 0
      vertex -1.13488 6.01432 10
      vertex -0.140363 6.11885 10
    endloop
  endfacet
  facet normal -0.994522 -0.104528 0
    outer loop
      vertex -1.13488 6.01432 0
      vertex -1.00945 4.82089 0
      vertex -1.13488 6.01432 10
    endloop
  endfacet
  facet normal -0.994522 -0.104528 0
    outer loop
      vertex -1.13488 6.01432 10
      vertex -1.00945 4.82089 0
      vertex -1.00945 4.82089 10
    endloop
  endfacet
  facet normal 0.104528 -0.994522 0
    outer loop
      vertex -1.00945 4.82089 10
      vertex -1.00945 4.82089 0
      vertex -0.778286 4.84519 0
    endloop
  endfacet
  facet normal 0.104528 -0.994522 0
    outer loop
      vertex -0.778286 4.84519 10
      vertex -1.00945 4.82089 10
      vertex -0.778286 4.84519 0
    endloop
  endfacet
  facet normal -0.19509 0.980785 0
    outer loop
      vertex -1.91342 4.6194 0
      vertex -1.91342 4.6194 10
      vertex -0.778286 4.84519 0
    endloop
  endfacet
  facet normal -0.19509 0.980785 0
    outer loop
      vertex -0.778286 4.84519 0
      vertex -1.91342 4.6194 10
      vertex -0.778286 4.84519 10
    endloop
  endfacet
  facet normal -0.55557 0.83147 0
    outer loop
      vertex -2.0406 4.53442 0
      vertex -2.0406 4.53442 10
      vertex -1.91342 4.6194 0
    endloop
  endfacet
  facet normal -0.55557 0.83147 0
    outer loop
      vertex -1.91342 4.6194 0
      vertex -2.0406 4.53442 10
      vertex -1.91342 4.6194 10
    endloop
  endfacet
  facet normal 0.866025 0.5 0
    outer loop
      vertex -2.0406 4.53442 0
      vertex -2.61699 5.53275 0
      vertex -2.61699 5.53275 10
    endloop
  endfacet
  facet normal 0.866025 0.5 0
    outer loop
      vertex -2.0406 4.53442 10
      vertex -2.0406 4.53442 0
      vertex -2.61699 5.53275 10
    endloop
  endfacet
  facet normal -0.5 0.866025 0
    outer loop
      vertex -3.48301 5.03275 0
      vertex -3.48301 5.03275 10
      vertex -2.61699 5.53275 0
    endloop
  endfacet
  facet normal -0.5 0.866025 0
    outer loop
      vertex -2.61699 5.53275 0
      vertex -3.48301 5.03275 10
      vertex -2.61699 5.53275 10
    endloop
  endfacet
  facet normal -0.866025 -0.5 0
    outer loop
      vertex -3.48301 5.03275 0
      vertex -2.88301 3.99352 0
      vertex -3.48301 5.03275 10
    endloop
  endfacet
  facet normal -0.866025 -0.5 0
    outer loop
      vertex -3.48301 5.03275 10
      vertex -2.88301 3.99352 0
      vertex -2.88301 3.99352 10
    endloop
  endfacet
  facet normal 0.5 -0.866025 0
    outer loop
      vertex -2.88301 3.99352 10
      vertex -2.88301 3.99352 0
      vertex -2.64091 4.1333 0
    endloop
  endfacet
  facet normal 0.5 -0.866025 0
    outer loop
      vertex -2.64091 4.1333 10
      vertex -2.88301 3.99352 10
      vertex -2.64091 4.1333 0
    endloop
  endfacet
  facet normal -0.55557 0.83147 0
    outer loop
      vertex -3.53553 3.53553 0
      vertex -3.53553 3.53553 10
      vertex -2.64091 4.1333 0
    endloop
  endfacet
  facet normal -0.55557 0.83147 0
    outer loop
      vertex -2.64091 4.1333 0
      vertex -3.53553 3.53553 10
      vertex -2.64091 4.1333 10
    endloop
  endfacet
  facet normal -0.83147 0.55557 0
    outer loop
      vertex -3.69242 3.30074 0
      vertex -3.69242 3.30074 10
      vertex -3.53553 3.53553 0
    endloop
  endfacet
  facet normal -0.83147 0.55557 0
    outer loop
      vertex -3.53553 3.53553 0
      vertex -3.69242 3.30074 10
      vertex -3.53553 3.53553 10
    endloop
  endfacet
  facet normal 0.587785 0.809017 0
    outer loop
      vertex -4.64111 3.99 0
      vertex -4.64111 3.99 10
      vertex -3.69242 3.30074 0
    endloop
  endfacet
  facet normal 0.587785 0.809017 0
    outer loop
      vertex -3.69242 3.30074 0
      vertex -4.64111 3.99 10
      vertex -3.69242 3.30074 10
    endloop
  endfacet
  facet normal -0.809017 0.587785 0
    outer loop
      vertex -5.2289 3.18098 0
      vertex -5.2289 3.18098 10
      vertex -4.64111 3.99 0
    endloop
  endfacet
  facet normal -0.809017 0.587785 0
    outer loop
      vertex -4.64111 3.99 0
      vertex -5.2289 3.18098 10
      vertex -4.64111 3.99 10
    endloop
  endfacet
  facet normal -0.587785 -0.809017 0
    outer loop
      vertex -5.2289 3.18098 10
      vertex -5.2289 3.18098 0
      vertex -4.25808 2.47564 0
    endloop
  endfacet
  facet normal -0.587785 -0.809017 0
    outer loop
      vertex -4.25808 2.47564 10
      vertex -5.2289 3.18098 10
      vertex -4.25808 2.47564 0
    endloop
  endfacet
  facet normal 0.809017 -0.587785 0
    outer loop
      vertex -4.25808 2.47564 10
      vertex -4.25808 2.47564 0
      vertex -4.07953 2.72139 0
    endloop
  endfacet
  facet normal 0.809017 -0.587785 0
    outer loop
      vertex -4.07953 2.72139 10
      vertex -4.25808 2.47564 10
      vertex -4.07953 2.72139 0
    endloop
  endfacet
  facet normal -0.83147 0.55557 0
    outer loop
      vertex -4.6194 1.91342 0
      vertex -4.6194 1.91342 10
      vertex -4.07953 2.72139 0
    endloop
  endfacet
  facet normal -0.83147 0.55557 0
    outer loop
      vertex -4.07953 2.72139 0
      vertex -4.6194 1.91342 10
      vertex -4.07953 2.72139 10
    endloop
  endfacet
  facet normal -0.980785 0.19509 0
    outer loop
      vertex -4.69962 1.51011 0
      vertex -4.69962 1.51011 10
      vertex -4.6194 1.91342 0
    endloop
  endfacet
  facet normal -0.980785 0.19509 0
    outer loop
      vertex -4.6194 1.91342 0
      vertex -4.69962 1.51011 10
      vertex -4.6194 1.91342 10
    endloop
  endfacet
  facet normal 0.207912 0.978148 0
    outer loop
      vertex -5.86274 1.75734 0
      vertex -5.86274 1.75734 10
      vertex -4.69962 1.51011 0
    endloop
  endfacet
  facet normal 0.207912 0.978148 0
    outer loop
      vertex -4.69962 1.51011 0
      vertex -5.86274 1.75734 10
      vertex -4.69962 1.51011 10
    endloop
  endfacet
  facet normal -0.978148 0.207912 0
    outer loop
      vertex -6.07066 0.779188 0
      vertex -6.07066 0.779188 10
      vertex -5.86274 1.75734 0
    endloop
  endfacet
  facet normal -0.978148 0.207912 0
    outer loop
      vertex -5.86274 1.75734 0
      vertex -6.07066 0.779188 10
      vertex -5.86274 1.75734 10
    endloop
  endfacet
  facet normal -0.207912 -0.978148 0
    outer loop
      vertex -6.07066 0.779188 10
      vertex -6.07066 0.779188 0
      vertex -4.89688 0.529693 0
    endloop
  endfacet
  facet normal -0.207912 -0.978148 0
    outer loop
      vertex -4.89688 0.529693 10
      vertex -6.07066 0.779188 10
      vertex -4.89688 0.529693 0
    endloop
  endfacet
  facet normal 0.978148 -0.207912 0
    outer loop
      vertex -4.89688 0.529693 10
      vertex -4.89688 0.529693 0
      vertex -4.86196 0.69398 0
    endloop
  endfacet
  facet normal 0.978148 -0.207912 0
    outer loop
      vertex -4.86196 0.69398 10
      vertex -4.89688 0.529693 10
      vertex -4.86196 0.69398 0
    endloop
  endfacet
  facet normal -0.980785 0.19509 0
    outer loop
      vertex -5 0 0
      vertex -5 0 10
      vertex -4.86196 0.69398 0
    endloop
  endfacet
  facet normal -0.980785 0.19509 0
    outer loop
      vertex -4.86196 0.69398 0
      vertex -5 0 10
      vertex -4.86196 0.69398 10
    endloop
  endfacet
  facet normal -0.980785 -0.19509 0
    outer loop
      vertex -5 0 0
      vertex -4.86196 -0.69398 0
      vertex -5 0 10
    endloop
  endfacet
  facet normal -0.980785 -0.19509 0
    outer loop
      vertex -5 0 10
      vertex -4.86196 -0.69398 0
      vertex -4.86196 -0.69398 10
    endloop
  endfacet
  facet normal 0.978148 0.207912 0
    outer loop
      vertex -4.86196 -0.69398 0
      vertex -4.89688 -0.529693 0
      vertex -4.89688 -0.529693 10
    endloop
  endfacet
  facet normal 0.978148 0.207912 0
    outer loop
      vertex -4.86196 -0.69398 10
      vertex -4.86196 -0.69398 0
      vertex -4.89688 -0.529693 10
    endloop
  endfacet
  facet normal 1 0 0
    outer loop
      vertex -2.4 -2.65429 7
      vertex -2.4 -2.65429 0
      vertex -2.4 2.65429 0
    endloop
  endfacet
  facet normal 1 0 0
    outer loop
      vertex -2.4 2.65429 7
      vertex -2.4 -2.65429 7
      vertex -2.4 2.65429 0
    endloop
  endfacet
  facet normal 0.707107 -0.707107 0
    outer loop
      vertex -1.85 3.20429 0
      vertex -1.85 3.20429 7
      vertex -2.4 2.65429 7
    endloop
  endfacet
  facet normal 0.707107 -0.707107 0
    outer loop
      vertex -2.4 2.65429 0
      vertex -1.85 3.20429 0
      vertex -2.4 2.65429 7
    endloop
  endfacet
  facet normal 0.258819 -0.965926 0
    outer loop
      vertex 0 3.7 0
      vertex 0 3.7 7
      vertex -1.85 3.20429 7
    endloop
  endfacet
  facet normal 0.258819 -0.965926 0
    outer loop
      vertex -1.85 3.20429 0
      vertex 0 3.7 0
      vertex -1.85 3.20429 7
    endloop
  endfacet
  facet normal -0.258819 -0.965926 0
    outer loop
      vertex 1.85 3.20429 0
      vertex 1.85 3.20429 7
      vertex 0 3.7 7
    endloop
  endfacet
  facet normal -0.258819 -0.965926 0
    outer loop
      vertex 0 3.7 0
      vertex 1.85 3.20429 0
      vertex 0 3.7 7
    endloop
  endfacet
  facet normal -0.707107 -0.707107 0
    outer loop
      vertex 2.4 2.65429 0
      vertex 2.4 2.65429 7
      vertex 1.85 3.20429 7
    endloop
  endfacet
  facet normal -0.707107 -0.707107 0
    outer loop
      vertex 1.85 3.20429 0
      vertex 2.4 2.65429 0
      vertex 1.85 3.20429 7
    endloop
  endfacet
  facet normal -1 0 0
    outer loop
      vertex 2.4 -2.65429 0
      vertex 2.4 -2.65429 7
      vertex 2.4 2.65429 0
    endloop
  endfacet
  facet normal -1 0 0
    outer loop
      vertex 2.4 2.65429 0
      vertex 2.4 -2.65429 7
      vertex 2.4 2.65429 7
    endloop
  endfacet
  facet normal -0.707107 0.707107 0
    outer loop
      vertex 2.4 -2.65429 7
      vertex 2.4 -2.65429 0
      vertex 1.85 -3.20429 7
    endloop
  endfacet
  facet normal -0.707107 0.707107 0
    outer loop
      vertex 1.85 -3.20429 7
      vertex 2.4 -2.65429 0
      vertex 1.85 -3.20429 0
    endloop
  endfacet
  facet normal -0.258819 0.965926 0
    outer loop
      vertex 1.85 -3.20429 7
      vertex 1.85 -3.20429 0
      vertex 0 -3.7 7
    endloop
  endfacet
  facet normal -0.258819 0.965926 0
    outer loop
      vertex 0 -3.7 7
      vertex 1.85 -3.20429 0
      vertex 0 -3.7 0
    endloop
  endfacet
  facet normal 0.258819 0.965926 0
    outer loop
      vertex 0 -3.7 7
      vertex 0 -3.7 0
      vertex -1.85 -3.20429 7
    endloop
  endfacet
  facet normal 0.258819 0.965926 0
    outer loop
      vertex -1.85 -3.20429 7
      vertex 0 -3.7 0
      vertex -1.85 -3.20429 0
    endloop
  endfacet
  facet normal 0.707107 0.707107 0
    outer loop
      vertex -1.85 -3.20429 7
      vertex -1.85 -3.20429 0
      vertex -2.4 -2.65429 7
    endloop
  endfacet
  facet normal 0.707107 0.707107 0
    outer loop
      vertex -2.4 -2.65429 7
      vertex -1.85 -3.20429 0
      vertex -2.4 -2.65429 0
    endloop
  endfacet
  facet normal 1 0 0
    outer loop
      vertex -0.809017 0.587785 7
      vertex -0.809017 0.587785 10
      vertex -0.809017 -0.587785 10
    endloop
  endfacet
  facet normal 1 0 0
    outer loop
      vertex -0.809017 -0.587785 7
      vertex -0.809017 0.587785 7
      vertex -0.809017 -0.587785 10
    endloop
  endfacet
  facet normal 0.309018 0.951056 0
    outer loop
      vertex 0.309017 -0.951057 10
      vertex 0.309017 -0.951057 7
      vertex -0.809017 -0.587785 10
    endloop
  endfacet
  facet normal 0.309018 0.951056 0
    outer loop
      vertex -0.809017 -0.587785 10
      vertex 0.309017 -0.951057 7
      vertex -0.809017 -0.587785 7
    endloop
  endfacet
  facet normal -0.809017 0.587785 0
    outer loop
      vertex 1 0 10
      vertex 1 0 7
      vertex 0.309017 -0.951057 10
    endloop
  endfacet
  facet normal -0.809017 0.587785 0
    outer loop
      vertex 0.309017 -0.951057 10
      vertex 1 0 7
      vertex 0.309017 -0.951057 7
    endloop
  endfacet
  facet normal -0.809017 -0.587785 0
    outer loop
      vertex 1 0 10
      vertex 0.309017 0.951057 10
      vertex 1 0 7
    endloop
  endfacet
  facet normal -0.809017 -0.587785 0
    outer loop
      vertex 1 0 7
      vertex 0.309017 0.951057 10
      vertex 0.309017 0.951057 7
    endloop
  endfacet
  facet normal 0.309018 -0.951056 0
    outer loop
      vertex 0.309017 0.951057 7
      vertex 0.309017 0.951057 10
      vertex -0.809017 0.587785 10
    endloop
  endfacet
  facet normal 0.309018 -0.951056 0
    outer loop
      vertex -0.809017 0.587785 7
      vertex 0.309017 0.951057 7
      vertex -0.809017 0.587785 10
    endloop
  endfacet
  facet normal 0 0 -1
    outer loop
      vertex -1.85 3.20429 7
      vertex 0 3.7 7
      vertex -2.4 2.65429 7
    endloop
  endfacet
  facet normal 0 0 -1
    outer loop
      vertex -2.4 2.65429 7
      vertex 0 3.7 7
      vertex 1.85 3.20429 7
    endloop
  endfacet
  facet normal 0 0 -1
    outer loop
      vertex -2.4 2.65429 7
      vertex 1.85 3.20429 7
      vertex 2.4 2.65429 7
    endloop
  endfacet
  facet normal 0 0 -1
    outer loop
      vertex 1 0 7
      vertex 2.4 2.65429 7
      vertex 2.4 -2.65429 7
    endloop
  endfacet
  facet normal 0 0 -1
    outer loop
      vertex 0.309017 -0.951057 7
      vertex 2.4 -2.65429 7
      vertex 1.85 -3.20429 7
    endloop
  endfacet
  facet normal 0 0 -1
    outer loop
      vertex -0.809017 -0.587785 7
      vertex 1.85 -3.20429 7
      vertex 0 -3.7 7
    endloop
  endfacet
  facet normal 0 0 -1
    outer loop
      vertex -2.4 2.65429 7
      vertex 0 -3.7 7
      vertex -1.85 -3.20429 7
    endloop
  endfacet
  facet normal 0 0 -1
    outer loop
      vertex -2.4 2.65429 7
      vertex -1.85 -3.20429 7
      vertex -2.4 -2.65429 7
    endloop
  endfacet
  facet normal 0 0 -1
    outer loop
      vertex 0.309017 -0.951057 7
      vertex 1.85 -3.20429 7
      vertex -0.809017 -0.587785 7
    endloop
  endfacet
  facet normal 0 0 -1
    outer loop
      vertex -2.4 2.65429 7
      vertex -0.809017 -0.587785 7
      vertex 0 -3.7 7
    endloop
  endfacet
  facet normal 0 0 -1
    outer loop
      vertex 0.309017 0.951057 7
      vertex 2.4 2.65429 7
      vertex 1 0 7
    endloop
  endfacet
  facet normal 0 0 -1
    outer loop
      vertex -0.809017 0.587785 7
      vertex -2.4 2.65429 7
      vertex 0.309017 0.951057 7
    endloop
  endfacet
  facet normal 0 0 -1
    outer loop
      vertex -2.4 2.65429 7
      vertex 2.4 2.65429 7
      vertex 0.309017 0.951057 7
    endloop
  endfacet
  facet normal 0 0 -1
    outer loop
      vertex -0.809017 -0.587785 7
      vertex -2.4 2.65429 7
      vertex -0.809017 0.587785 7
    endloop
  endfacet
  facet normal 0 0 -1
    outer loop
      vertex 1 0 7
      vertex 2.4 -2.65429 7
      vertex 0.309017 -0.951057 7
    endloop
  endfacet
endsolid OpenSCAD_Model
